<?xml version="1.0" standalone="no"?><svg xmlns:xlink="http://www.w3.org/1999/xlink" xmlns="http://www.w3.org/2000/svg" viewBox="0 0 1000 599.9836007645166" preserveAspectRatio="xMaxYMax slice"><g transform="scale(1.9522899384833439)"><rect x="0" y="0" width="512.2216666666666" height="307.33299999999997" fill="#ffffff"/><rect x="5.122216666666667" y="5.122216666666667" width="40.977733333333326" height="40.977733333333326" fill="#ffffff"/><circle cx="15.364999999999998" cy="15.364999999999998" r="10.245" fill="#ad2d5e"/><g transform="translate(25.61,5.12) scale(1.0245) rotate(0)"><path d="M13 0H20V7L7 20H0V13L13 0Z" fill="#d491ab"/></g><g transform="translate(5.12,25.61) scale(1.0245) rotate(0)"><path d="M10 0H20V10L10 20H0V10L10 0Z" fill="#fdf9fa"/></g><rect x="56.344383333333326" y="5.122216666666667" width="40.977733333333326" height="40.977733333333326" fill="#ffffff"/><circle cx="66.58500000000001" cy="35.855" r="10.245" fill="#ad2b5d"/><g transform="translate(76.83,25.61) scale(1.0245) rotate(0)"><path fill-rule="evenodd" clip-rule="evenodd" d="M10 20C15.5228 20 20 15.5228 20 10C20 4.47715 15.5228 0 10 0C4.47715 0 0 4.47715 0 10C0 15.5228 4.47715 20 10 20ZM10 17C13.866 17 17 13.866 17 10C17 6.13401 13.866 3 10 3C6.13401 3 3 6.13401 3 10C3 13.866 6.13401 17 10 17Z" fill="#fbf4f6"/></g><rect x="107.56654999999998" y="5.122216666666667" width="40.977733333333326" height="40.977733333333326" fill="#ffffff"/><circle cx="117.815" cy="15.364999999999998" r="10.245" fill="#f6e8ec"/><circle cx="138.305" cy="35.855" r="10.245" fill="#eed1d9"/><g transform="translate(158.79,5.12) scale(2.049) rotate(0)"><path d="M13 0H20V7L7 20H0V13L13 0Z" fill="#e5bccc"/></g><g transform="translate(210.01,5.12) scale(2.049) rotate(0)"><path fill-rule="evenodd" clip-rule="evenodd" d="M10 20C15.5228 20 20 15.5228 20 10C20 4.47715 15.5228 0 10 0C4.47715 0 0 4.47715 0 10C0 15.5228 4.47715 20 10 20ZM10 17C13.866 17 17 13.866 17 10C17 6.13401 13.866 3 10 3C6.13401 3 3 6.13401 3 10C3 13.866 6.13401 17 10 17Z" fill="#fdf9fb"/></g><rect x="261.23304999999993" y="5.122216666666667" width="40.977733333333326" height="40.977733333333326" fill="#ffffff"/><g transform="translate(281.72,5.12) scale(1.0245) rotate(0)"><path d="M13 0H20V7L7 20H0V13L13 0Z" fill="#f4e0e6"/></g><circle cx="271.475" cy="35.855" r="10.245" fill="#dca4b9"/><rect x="312.4552166666666" y="5.122216666666667" width="40.977733333333326" height="40.977733333333326" fill="#ffffff"/><circle cx="322.705" cy="15.364999999999998" r="10.245" fill="#faf1f3"/><g transform="translate(332.94,5.12) scale(1.0245) rotate(0)"><path d="M13 0H20V7L7 20H0V13L13 0Z" fill="#efd3db"/></g><g transform="translate(312.46,25.61) scale(1.0245) rotate(0)"><path d="M10 0H20V10L10 20H0V10L10 0Z" fill="#f4e1e6"/></g><g transform="translate(363.68,5.12) scale(2.049) rotate(0)"><path d="M10 0H20V10L10 20H0V10L10 0Z" fill="#efd4dc"/></g><g transform="translate(414.9,5.12) scale(2.049) rotate(0)"><path d="M13 0H20V7L7 20H0V13L13 0Z" fill="#e1b1c3"/></g><g transform="translate(5.12,56.34) scale(2.049) rotate(0)"><path d="M10 0H20V10L10 20H0V10L10 0Z" fill="#f6e7eb"/></g><circle cx="76.83" cy="76.83" r="20.49" fill="#efd3db"/><g transform="translate(107.57,56.34) scale(2.049) rotate(0)"><path d="M10 0H20V10L10 20H0V10L10 0Z" fill="#f0d6dd"/></g><g transform="translate(158.79,56.34) scale(2.049) rotate(0)"><path d="M13 0H20V7L7 20H0V13L13 0Z" fill="#f3e0e8"/></g><g transform="translate(312.46,56.34) scale(2.049) rotate(0)"><path d="M13 0H20V7L7 20H0V13L13 0Z" fill="#a10e46"/></g><g transform="translate(56.34,107.57) scale(2.049) rotate(0)"><path d="M13 0H20V7L7 20H0V13L13 0Z" fill="#a00a44"/></g><g transform="translate(107.57,107.57) scale(2.049) rotate(0)"><path fill-rule="evenodd" clip-rule="evenodd" d="M10 20C15.5228 20 20 15.5228 20 10C20 4.47715 15.5228 0 10 0C4.47715 0 0 4.47715 0 10C0 15.5228 4.47715 20 10 20ZM10 17C13.866 17 17 13.866 17 10C17 6.13401 13.866 3 10 3C6.13401 3 3 6.13401 3 10C3 13.866 6.13401 17 10 17Z" fill="#c56b8e"/></g><circle cx="179.28" cy="128.06" r="20.49" fill="#c97394"/><circle cx="281.72" cy="128.06" r="20.49" fill="#efd6e0"/><circle cx="384.17" cy="128.06" r="20.49" fill="#9d023d"/><circle cx="435.39" cy="128.06" r="20.49" fill="#f4e1e6"/><g transform="translate(466.12,107.57) scale(2.049) rotate(0)"><path fill-rule="evenodd" clip-rule="evenodd" d="M10 20C15.5228 20 20 15.5228 20 10C20 4.47715 15.5228 0 10 0C4.47715 0 0 4.47715 0 10C0 15.5228 4.47715 20 10 20ZM10 17C13.866 17 17 13.866 17 10C17 6.13401 13.866 3 10 3C6.13401 3 3 6.13401 3 10C3 13.866 6.13401 17 10 17Z" fill="#f3dfe5"/></g><g transform="translate(5.12,158.79) scale(2.049) rotate(0)"><path d="M10 0H20V10L10 20H0V10L10 0Z" fill="#d38ea9"/></g><g transform="translate(107.57,158.79) scale(2.049) rotate(0)"><path fill-rule="evenodd" clip-rule="evenodd" d="M10 20C15.5228 20 20 15.5228 20 10C20 4.47715 15.5228 0 10 0C4.47715 0 0 4.47715 0 10C0 15.5228 4.47715 20 10 20ZM10 17C13.866 17 17 13.866 17 10C17 6.13401 13.866 3 10 3C6.13401 3 3 6.13401 3 10C3 13.866 6.13401 17 10 17Z" fill="#eed2da"/></g><g transform="translate(158.79,158.79) scale(2.049) rotate(0)"><path d="M10 0H20V10L10 20H0V10L10 0Z" fill="#f0d5dd"/></g><circle cx="230.5" cy="179.28" r="20.49" fill="#f3dee3"/><g transform="translate(261.23,158.79) scale(2.049) rotate(0)"><path fill-rule="evenodd" clip-rule="evenodd" d="M10 20C15.5228 20 20 15.5228 20 10C20 4.47715 15.5228 0 10 0C4.47715 0 0 4.47715 0 10C0 15.5228 4.47715 20 10 20ZM10 17C13.866 17 17 13.866 17 10C17 6.13401 13.866 3 10 3C6.13401 3 3 6.13401 3 10C3 13.866 6.13401 17 10 17Z" fill="#ebc8d2"/></g><g transform="translate(312.46,158.79) scale(2.049) rotate(0)"><path fill-rule="evenodd" clip-rule="evenodd" d="M10 20C15.5228 20 20 15.5228 20 10C20 4.47715 15.5228 0 10 0C4.47715 0 0 4.47715 0 10C0 15.5228 4.47715 20 10 20ZM10 17C13.866 17 17 13.866 17 10C17 6.13401 13.866 3 10 3C6.13401 3 3 6.13401 3 10C3 13.866 6.13401 17 10 17Z" fill="#fefbfc"/></g><g transform="translate(363.68,158.79) scale(2.049) rotate(0)"><path fill-rule="evenodd" clip-rule="evenodd" d="M10 20C15.5228 20 20 15.5228 20 10C20 4.47715 15.5228 0 10 0C4.47715 0 0 4.47715 0 10C0 15.5228 4.47715 20 10 20ZM10 17C13.866 17 17 13.866 17 10C17 6.13401 13.866 3 10 3C6.13401 3 3 6.13401 3 10C3 13.866 6.13401 17 10 17Z" fill="#f7e8ec"/></g><g transform="translate(414.9,158.79) scale(2.049) rotate(0)"><path d="M10 0H20V10L10 20H0V10L10 0Z" fill="#f9eff1"/></g><circle cx="486.61" cy="179.28" r="20.49" fill="#b74570"/><rect x="5.122216666666667" y="210.0108833333333" width="40.977733333333326" height="40.977733333333326" fill="#ffffff"/><g transform="translate(5.12,210.01) scale(1.0245) rotate(0)"><path d="M10 0H20V10L10 20H0V10L10 0Z" fill="#cf84a1"/></g><g transform="translate(5.12,230.5) scale(1.0245) rotate(0)"><path fill-rule="evenodd" clip-rule="evenodd" d="M10 20C15.5228 20 20 15.5228 20 10C20 4.47715 15.5228 0 10 0C4.47715 0 0 4.47715 0 10C0 15.5228 4.47715 20 10 20ZM10 17C13.866 17 17 13.866 17 10C17 6.13401 13.866 3 10 3C6.13401 3 3 6.13401 3 10C3 13.866 6.13401 17 10 17Z" fill="#f8ecef"/></g><g transform="translate(107.57,210.01) scale(2.049) rotate(0)"><path d="M13 0H20V7L7 20H0V13L13 0Z" fill="#edd1dc"/></g><g transform="translate(210.01,210.01) scale(2.049) rotate(0)"><path d="M13 0H20V7L7 20H0V13L13 0Z" fill="#e1b2c4"/></g><g transform="translate(261.23,210.01) scale(2.049) rotate(0)"><path d="M10 0H20V10L10 20H0V10L10 0Z" fill="#fefdfe"/></g><g transform="translate(363.68,210.01) scale(2.049) rotate(0)"><path d="M10 0H20V10L10 20H0V10L10 0Z" fill="#f5e5e9"/></g><g transform="translate(414.9,210.01) scale(2.049) rotate(0)"><path fill-rule="evenodd" clip-rule="evenodd" d="M10 20C15.5228 20 20 15.5228 20 10C20 4.47715 15.5228 0 10 0C4.47715 0 0 4.47715 0 10C0 15.5228 4.47715 20 10 20ZM10 17C13.866 17 17 13.866 17 10C17 6.13401 13.866 3 10 3C6.13401 3 3 6.13401 3 10C3 13.866 6.13401 17 10 17Z" fill="#efd5df"/></g><g transform="translate(107.57,261.23) scale(2.049) rotate(0)"><path d="M13 0H20V7L7 20H0V13L13 0Z" fill="#c4678b"/></g><g transform="translate(158.79,261.23) scale(2.049) rotate(0)"><path d="M13 0H20V7L7 20H0V13L13 0Z" fill="#f6e8ec"/></g><rect x="210.0108833333333" y="261.23304999999993" width="40.977733333333326" height="40.977733333333326" fill="#ffffff"/><circle cx="240.745" cy="271.475" r="10.245" fill="#fcf6f8"/><g transform="translate(210.01,281.72) scale(1.0245) rotate(0)"><path fill-rule="evenodd" clip-rule="evenodd" d="M10 20C15.5228 20 20 15.5228 20 10C20 4.47715 15.5228 0 10 0C4.47715 0 0 4.47715 0 10C0 15.5228 4.47715 20 10 20ZM10 17C13.866 17 17 13.866 17 10C17 6.13401 13.866 3 10 3C6.13401 3 3 6.13401 3 10C3 13.866 6.13401 17 10 17Z" fill="#f7ebef"/></g><g transform="translate(230.5,281.72) scale(1.0245) rotate(0)"><path d="M10 0H20V10L10 20H0V10L10 0Z" fill="#ecccd5"/></g><g transform="translate(261.23,261.23) scale(2.049) rotate(0)"><path d="M13 0H20V7L7 20H0V13L13 0Z" fill="#fdfbfb"/></g><rect x="312.4552166666666" y="261.23304999999993" width="40.977733333333326" height="40.977733333333326" fill="#ffffff"/><g transform="translate(312.46,261.23) scale(1.0245) rotate(0)"><path d="M10 0H20V10L10 20H0V10L10 0Z" fill="#fdf9fa"/></g><g transform="translate(332.94,261.23) scale(1.0245) rotate(0)"><path d="M13 0H20V7L7 20H0V13L13 0Z" fill="#9d033e"/></g><g transform="translate(312.46,281.72) scale(1.0245) rotate(0)"><path d="M13 0H20V7L7 20H0V13L13 0Z" fill="#ffffff"/></g><g transform="translate(414.9,261.23) scale(2.049) rotate(0)"><path d="M13 0H20V7L7 20H0V13L13 0Z" fill="#f4e2e9"/></g><circle cx="486.61" cy="281.72" r="20.49" fill="#faf0f3"/></g></svg>