<?xml version="1.0" standalone="no"?><svg xmlns:xlink="http://www.w3.org/1999/xlink" xmlns="http://www.w3.org/2000/svg" viewBox="0 0 1000 368.40975895121966" preserveAspectRatio="xMaxYMax slice"><g transform="scale(1.198770540933219)"><rect x="0" y="0" width="834.1895714285714" height="307.33299999999997" fill="#ffffff"/><rect x="0" y="0" width="43.904714285714284" height="43.904714285714284" fill="#ffffff"/><g transform="translate(0,21.95) scale(1.0975) rotate(0)"><path d="M13 0H20V7L7 20H0V13L13 0Z" fill="#fefdfd"/></g><g transform="translate(43.9,0) scale(2.195) rotate(0)"><path d="M13 0H20V7L7 20H0V13L13 0Z" fill="#f7ebf0"/></g><g transform="translate(175.62,0) scale(2.195) rotate(0)"><path d="M13 0H20V7L7 20H0V13L13 0Z" fill="#eed0d9"/></g><rect x="219.52357142857142" y="0" width="43.904714285714284" height="43.904714285714284" fill="#ffffff"/><g transform="translate(241.48,0) scale(1.0975) rotate(0)"><path d="M13 0H20V7L7 20H0V13L13 0Z" fill="#a10c45"/></g><g transform="translate(439.05,0) scale(2.195) rotate(0)"><path d="M13 0H20V7L7 20H0V13L13 0Z" fill="#b33c6a"/></g><rect x="570.7612857142857" y="0" width="43.904714285714284" height="43.904714285714284" fill="#ffffff"/><g transform="translate(592.71,0) scale(1.0975) rotate(0)"><path d="M13 0H20V7L7 20H0V13L13 0Z" fill="#f3dde3"/></g><g transform="translate(570.76,21.95) scale(1.0975) rotate(0)"><path d="M13 0H20V7L7 20H0V13L13 0Z" fill="#f2dee6"/></g><g transform="translate(702.48,0) scale(2.195) rotate(0)"><path d="M13 0H20V7L7 20H0V13L13 0Z" fill="#b23867"/></g><rect x="790.2848571428572" y="0" width="43.904714285714284" height="43.904714285714284" fill="#ffffff"/><g transform="translate(812.24,0) scale(1.0975) rotate(0)"><path d="M13 0H20V7L7 20H0V13L13 0Z" fill="#f1dae3"/></g><rect x="0" y="43.904714285714284" width="43.904714285714284" height="43.904714285714284" fill="#ffffff"/><rect x="175.61885714285714" y="43.904714285714284" width="43.904714285714284" height="43.904714285714284" fill="#ffffff"/><rect x="351.2377142857143" y="43.904714285714284" width="43.904714285714284" height="43.904714285714284" fill="#ffffff"/><g transform="translate(439.05,43.9) scale(2.195) rotate(0)"><path d="M13 0H20V7L7 20H0V13L13 0Z" fill="#fbf5f6"/></g><g transform="translate(131.71,87.81) scale(2.195) rotate(0)"><path d="M13 0H20V7L7 20H0V13L13 0Z" fill="#ac285b"/></g><g transform="translate(263.43,87.81) scale(2.195) rotate(0)"><path d="M13 0H20V7L7 20H0V13L13 0Z" fill="#fbf3f5"/></g><rect x="351.2377142857143" y="87.80942857142857" width="43.904714285714284" height="43.904714285714284" fill="#ffffff"/><g transform="translate(373.19,109.76) scale(1.0975) rotate(0)"><path d="M13 0H20V7L7 20H0V13L13 0Z" fill="#f6e7ec"/></g><rect x="395.1424285714286" y="87.80942857142857" width="43.904714285714284" height="43.904714285714284" fill="#ffffff"/><g transform="translate(395.14,87.81) scale(1.0975) rotate(0)"><path d="M13 0H20V7L7 20H0V13L13 0Z" fill="#ce809e"/></g><g transform="translate(439.05,87.81) scale(2.195) rotate(0)"><path d="M13 0H20V7L7 20H0V13L13 0Z" fill="#efd2da"/></g><rect x="0" y="131.71414285714286" width="43.904714285714284" height="43.904714285714284" fill="#ffffff"/><g transform="translate(21.95,153.67) scale(1.0975) rotate(0)"><path d="M13 0H20V7L7 20H0V13L13 0Z" fill="#f4e0e5"/></g><rect x="43.904714285714284" y="131.71414285714286" width="43.904714285714284" height="43.904714285714284" fill="#ffffff"/><g transform="translate(43.9,131.71) scale(1.0975) rotate(0)"><path d="M13 0H20V7L7 20H0V13L13 0Z" fill="#eed0d9"/></g><g transform="translate(65.86,131.71) scale(1.0975) rotate(0)"><path d="M13 0H20V7L7 20H0V13L13 0Z" fill="#f5e3e8"/></g><g transform="translate(65.86,153.67) scale(1.0975) rotate(0)"><path d="M13 0H20V7L7 20H0V13L13 0Z" fill="#fcf6f8"/></g><g transform="translate(87.81,131.71) scale(2.195) rotate(0)"><path d="M13 0H20V7L7 20H0V13L13 0Z" fill="#fefcfd"/></g><g transform="translate(131.71,131.71) scale(2.195) rotate(0)"><path d="M13 0H20V7L7 20H0V13L13 0Z" fill="#b74672"/></g><rect x="175.61885714285714" y="131.71414285714286" width="43.904714285714284" height="43.904714285714284" fill="#ffffff"/><g transform="translate(175.62,131.71) scale(1.0975) rotate(0)"><path d="M13 0H20V7L7 20H0V13L13 0Z" fill="#e4b8c9"/></g><rect x="219.52357142857142" y="131.71414285714286" width="43.904714285714284" height="43.904714285714284" fill="#ffffff"/><g transform="translate(241.48,131.71) scale(1.0975) rotate(0)"><path d="M13 0H20V7L7 20H0V13L13 0Z" fill="#d28aa5"/></g><g transform="translate(263.43,131.71) scale(2.195) rotate(0)"><path d="M13 0H20V7L7 20H0V13L13 0Z" fill="#f1d8df"/></g><rect x="526.8565714285714" y="131.71414285714286" width="43.904714285714284" height="43.904714285714284" fill="#ffffff"/><g transform="translate(526.86,153.67) scale(1.0975) rotate(0)"><path d="M13 0H20V7L7 20H0V13L13 0Z" fill="#fcf7f8"/></g><g transform="translate(548.81,153.67) scale(1.0975) rotate(0)"><path d="M13 0H20V7L7 20H0V13L13 0Z" fill="#eed3dd"/></g><rect x="790.2848571428572" y="131.71414285714286" width="43.904714285714284" height="43.904714285714284" fill="#ffffff"/><rect x="0" y="175.61885714285714" width="43.904714285714284" height="43.904714285714284" fill="#ffffff"/><g transform="translate(43.9,175.62) scale(2.195) rotate(0)"><path d="M13 0H20V7L7 20H0V13L13 0Z" fill="#fdf9fa"/></g><g transform="translate(219.52,175.62) scale(2.195) rotate(0)"><path d="M13 0H20V7L7 20H0V13L13 0Z" fill="#fefcfd"/></g><rect x="263.4282857142857" y="175.61885714285714" width="43.904714285714284" height="43.904714285714284" fill="#ffffff"/><rect x="526.8565714285714" y="175.61885714285714" width="43.904714285714284" height="43.904714285714284" fill="#ffffff"/><g transform="translate(548.81,175.62) scale(1.0975) rotate(0)"><path d="M13 0H20V7L7 20H0V13L13 0Z" fill="#f4e0e6"/></g><g transform="translate(658.57,175.62) scale(2.195) rotate(0)"><path d="M13 0H20V7L7 20H0V13L13 0Z" fill="#b23867"/></g><rect x="87.80942857142857" y="219.52357142857142" width="43.904714285714284" height="43.904714285714284" fill="#ffffff"/><g transform="translate(87.81,219.52) scale(1.0975) rotate(0)"><path d="M13 0H20V7L7 20H0V13L13 0Z" fill="#f6e8ec"/></g><g transform="translate(87.81,241.48) scale(1.0975) rotate(0)"><path d="M13 0H20V7L7 20H0V13L13 0Z" fill="#dca5ba"/></g><rect x="219.52357142857142" y="219.52357142857142" width="43.904714285714284" height="43.904714285714284" fill="#ffffff"/><g transform="translate(241.48,219.52) scale(1.0975) rotate(0)"><path d="M13 0H20V7L7 20H0V13L13 0Z" fill="#ac2a5c"/></g><g transform="translate(219.52,241.48) scale(1.0975) rotate(0)"><path d="M13 0H20V7L7 20H0V13L13 0Z" fill="#f6e8ec"/></g><rect x="439.04714285714283" y="219.52357142857142" width="43.904714285714284" height="43.904714285714284" fill="#ffffff"/><g transform="translate(461,241.48) scale(1.0975) rotate(0)"><path d="M13 0H20V7L7 20H0V13L13 0Z" fill="#eed0d8"/></g><rect x="614.6659999999999" y="219.52357142857142" width="43.904714285714284" height="43.904714285714284" fill="#ffffff"/><g transform="translate(614.67,219.52) scale(1.0975) rotate(0)"><path d="M13 0H20V7L7 20H0V13L13 0Z" fill="#b43e6b"/></g><g transform="translate(636.62,219.52) scale(1.0975) rotate(0)"><path d="M13 0H20V7L7 20H0V13L13 0Z" fill="#eac6d0"/></g><g transform="translate(614.67,241.48) scale(1.0975) rotate(0)"><path d="M13 0H20V7L7 20H0V13L13 0Z" fill="#a61a50"/></g><rect x="790.2848571428572" y="219.52357142857142" width="43.904714285714284" height="43.904714285714284" fill="#ffffff"/><g transform="translate(812.24,219.52) scale(1.0975) rotate(0)"><path d="M13 0H20V7L7 20H0V13L13 0Z" fill="#faf1f5"/></g><g transform="translate(131.71,263.43) scale(2.195) rotate(0)"><path d="M13 0H20V7L7 20H0V13L13 0Z" fill="#f2dce2"/></g><g transform="translate(482.95,263.43) scale(2.195) rotate(0)"><path d="M13 0H20V7L7 20H0V13L13 0Z" fill="#eccbd4"/></g><rect x="526.8565714285714" y="263.4282857142857" width="43.904714285714284" height="43.904714285714284" fill="#ffffff"/><g transform="translate(548.81,263.43) scale(1.0975) rotate(0)"><path d="M13 0H20V7L7 20H0V13L13 0Z" fill="#f8edf0"/></g><g transform="translate(702.48,263.43) scale(2.195) rotate(0)"><path d="M13 0H20V7L7 20H0V13L13 0Z" fill="#c16085"/></g></g></svg>