<?xml version="1.0" standalone="no"?><svg xmlns:xlink="http://www.w3.org/1999/xlink" xmlns="http://www.w3.org/2000/svg" viewBox="0 0 1000 368.40975895121966" preserveAspectRatio="xMaxYMax slice"><g transform="scale(1.198770540933219)"><rect x="0" y="0" width="834.1895714285714" height="307.33299999999997" fill="#ffffff"/><rect x="131.71414285714286" y="0" width="43.904714285714284" height="43.904714285714284" fill="#ffffff"/><path d="M 131.71 0 A 21.95 21.95 0 0 0 153.66 21.95 L 153.66 0" fill="#d696af"/><path d="M 153.67 43.9 A 21.95 21.95 0 0 1  175.61999999999998 21.95 L 153.67 43.9 A 21.95 21.95 0 0 0 175.61999999999998 21.95" fill="#b5406d"/><rect x="175.61885714285714" y="0" width="43.904714285714284" height="43.904714285714284" fill="#ffffff"/><path d="M 175.62 21.95 A 21.95 21.95 0 0 1  197.57 0 L 175.62 21.95 A 21.95 21.95 0 0 0 197.57 0" fill="#f7e8ec"/><path d="M 175.62 21.95 A 21.95 21.95 0 0 1  197.57 43.9 L 175.62 21.95 A 21.95 21.95 0 0 0 197.57 43.9" fill="#a31249"/><rect x="570.7612857142857" y="0" width="43.904714285714284" height="43.904714285714284" fill="#ffffff"/><path d="M 592.71 21.95 A 21.95 21.95 0 0 1  614.6600000000001 0 L 614.6600000000001 21.95" fill="#fdfafb"/><path d="M 570.76 21.95 A 21.95 21.95 0 0 1  592.71 43.9 L 570.76 21.95 A 21.95 21.95 0 0 0 592.71 43.9" fill="#ffffff"/><rect x="614.6659999999999" y="0" width="43.904714285714284" height="43.904714285714284" fill="#ffffff"/><rect x="0" y="43.904714285714284" width="43.904714285714284" height="43.904714285714284" fill="#ffffff"/><path d="M 0 43.9 A 21.95 21.95 0 0 1  21.95 65.85 L 0 43.9 A 21.95 21.95 0 0 0 21.95 65.85" fill="#c56a8d"/><path d="M 21.95 65.86 A 21.95 21.95 0 0 1 43.9 87.81 L 21.95 87.81" fill="#b13564"/><path d="M 43.9 87.8 A 43.9 43.9 0 0 0 87.8 43.9 L 43.9 43.9" fill="#f6e6eb"/><path d="M 263.43 87.8 A 43.9 43.9 0 0 1  307.33 43.9 L 307.33 87.8" fill="#f7e8ec"/><path d="M 307.33 43.9 A 43.9 43.9 0 0 1 351.22999999999996 87.8 L 307.33 87.8" fill="#ba4c76"/><rect x="351.2377142857143" y="43.904714285714284" width="43.904714285714284" height="43.904714285714284" fill="#ffffff"/><path d="M 351.24 65.85 A 21.95 21.95 0 0 1  373.19 43.9 L 351.24 65.85 A 21.95 21.95 0 0 0 373.19 43.9" fill="#ebc9d2"/><path d="M 373.19 43.9 A 21.95 21.95 0 0 1 395.14 65.85 L 373.19 65.85" fill="#f3dee3"/><path d="M 351.24 65.86 A 21.95 21.95 0 0 0 373.19 87.81 L 373.19 65.86" fill="#e9c5d3"/><path d="M 373.19 87.81 A 21.95 21.95 0 0 1  395.14 65.86 L 395.14 87.81" fill="#a21048"/><rect x="395.1424285714286" y="43.904714285714284" width="43.904714285714284" height="43.904714285714284" fill="#ffffff"/><path d="M 395.14 43.9 A 21.95 21.95 0 0 1 417.09 65.85 L 395.14 65.85" fill="#e2b5c6"/><path d="M 395.14 87.81 A 21.95 21.95 0 0 1  417.09 65.86 L 417.09 87.81" fill="#a00a43"/><path d="M 439.05 87.8 A 43.9 43.9 0 0 0 482.95 43.9 L 439.05 43.9" fill="#fbf3f5"/><path d="M 482.95 43.9 A 43.9 43.9 0 0 0 526.85 87.8 L 526.85 43.9" fill="#eac6d0"/><rect x="526.8565714285714" y="43.904714285714284" width="43.904714285714284" height="43.904714285714284" fill="#ffffff"/><path d="M 548.81 87.81 A 21.95 21.95 0 0 0 570.76 65.86 L 548.81 65.86" fill="#fffefe"/><path d="M 702.48 87.8 A 43.9 43.9 0 0 1  746.38 43.9 L 702.48 87.8 A 43.9 43.9 0 0 0 746.38 43.9" fill="#e3b6c7"/><rect x="746.3801428571428" y="43.904714285714284" width="43.904714285714284" height="43.904714285714284" fill="#ffffff"/><path d="M 768.33 43.9 A 21.95 21.95 0 0 0 790.2800000000001 65.85 L 790.2800000000001 43.9" fill="#f2dfe6"/><path d="M 768.33 87.81 A 21.95 21.95 0 0 0 790.2800000000001 65.86 L 768.33 65.86" fill="#fefcfd"/><rect x="43.904714285714284" y="87.80942857142857" width="43.904714285714284" height="43.904714285714284" fill="#ffffff"/><path d="M 43.9 109.76 A 21.95 21.95 0 0 1  65.85 87.81 L 65.85 109.76" fill="#b84974"/><path d="M 43.9 109.76 A 21.95 21.95 0 0 1  65.85 131.71 L 43.9 109.76 A 21.95 21.95 0 0 0 65.85 131.71" fill="#ebc8d2"/><rect x="175.61885714285714" y="87.80942857142857" width="43.904714285714284" height="43.904714285714284" fill="#ffffff"/><path d="M 197.57 87.81 A 21.95 21.95 0 0 1  219.51999999999998 109.76 L 197.57 87.81 A 21.95 21.95 0 0 0 219.51999999999998 109.76" fill="#edcdd6"/><path d="M 175.62 109.76 A 21.95 21.95 0 0 1  197.57 131.71 L 175.62 109.76 A 21.95 21.95 0 0 0 197.57 131.71" fill="#c16085"/><path d="M 197.57 131.71 A 21.95 21.95 0 0 1  219.51999999999998 109.76 L 219.51999999999998 131.71" fill="#dca4b9"/><path d="M 307.33 131.71 A 43.9 43.9 0 0 1  351.22999999999996 87.81 L 351.22999999999996 131.71" fill="#faf2f4"/><rect x="439.04714285714283" y="87.80942857142857" width="43.904714285714284" height="43.904714285714284" fill="#ffffff"/><path d="M 461 109.76 A 21.95 21.95 0 0 0 482.95 131.71 L 482.95 109.76" fill="#e5bdcd"/><rect x="0" y="131.71414285714286" width="43.904714285714284" height="43.904714285714284" fill="#ffffff"/><path d="M 131.71 175.61 A 43.9 43.9 0 0 1  175.61 131.71 L 131.71 175.61 A 43.9 43.9 0 0 0 175.61 131.71" fill="#ebc8d2"/><path d="M 263.43 175.61 A 43.9 43.9 0 0 0 307.33 131.71 L 263.43 131.71" fill="#f8ecf0"/><path d="M 351.24 175.61 A 43.9 43.9 0 0 1  395.14 131.71 L 351.24 175.61 A 43.9 43.9 0 0 0 395.14 131.71" fill="#f9f0f2"/><path d="M 746.38 131.71 A 43.9 43.9 0 0 1  790.28 175.61 L 746.38 131.71 A 43.9 43.9 0 0 0 790.28 175.61" fill="#eac6d0"/><rect x="219.52357142857142" y="175.61885714285714" width="43.904714285714284" height="43.904714285714284" fill="#ffffff"/><path d="M 219.52 197.57 A 21.95 21.95 0 0 1 241.47 219.51999999999998 L 219.52 219.51999999999998" fill="#edd1dc"/><path d="M 241.48 219.51999999999998 A 21.95 21.95 0 0 0 263.43 197.57 L 241.48 197.57" fill="#a10d46"/><rect x="482.95185714285714" y="175.61885714285714" width="43.904714285714284" height="43.904714285714284" fill="#ffffff"/><path d="M 504.9 175.62 A 21.95 21.95 0 0 0 526.85 197.57 L 526.85 175.62" fill="#fbf3f5"/><rect x="746.3801428571428" y="175.61885714285714" width="43.904714285714284" height="43.904714285714284" fill="#ffffff"/><path d="M 746.38 197.57 A 21.95 21.95 0 0 1  768.33 219.51999999999998 L 746.38 197.57 A 21.95 21.95 0 0 0 768.33 219.51999999999998" fill="#eed4de"/><path d="M 768.33 219.51999999999998 A 21.95 21.95 0 0 1  790.2800000000001 197.57 L 790.2800000000001 219.51999999999998" fill="#f3e0e8"/><path d="M 219.52 263.42 A 43.9 43.9 0 0 1  263.42 219.52 L 263.42 263.42" fill="#d28ca7"/><rect x="307.33299999999997" y="219.52357142857142" width="43.904714285714284" height="43.904714285714284" fill="#ffffff"/><path d="M 307.33 241.47 A 21.95 21.95 0 0 0 329.28 219.52 L 307.33 219.52" fill="#eed1d9"/><path d="M 307.33 241.48 A 21.95 21.95 0 0 1  329.28 263.43 L 307.33 241.48 A 21.95 21.95 0 0 0 329.28 263.43" fill="#aa2458"/><path d="M 329.29 263.43 A 21.95 21.95 0 0 1  351.24 241.48 L 329.29 263.43 A 21.95 21.95 0 0 0 351.24 241.48" fill="#b13666"/><rect x="351.2377142857143" y="219.52357142857142" width="43.904714285714284" height="43.904714285714284" fill="#ffffff"/><path d="M 351.24 241.47 A 21.95 21.95 0 0 1  373.19 219.52 L 373.19 241.47" fill="#ebcbd7"/><rect x="395.1424285714286" y="219.52357142857142" width="43.904714285714284" height="43.904714285714284" fill="#ffffff"/><rect x="658.5707142857143" y="219.52357142857142" width="43.904714285714284" height="43.904714285714284" fill="#ffffff"/><path d="M 658.57 219.52 A 21.95 21.95 0 0 0 680.5200000000001 241.47 L 680.5200000000001 219.52" fill="#f7eaef"/><path d="M 680.52 219.52 A 21.95 21.95 0 0 0 702.47 241.47 L 702.47 219.52" fill="#faf2f4"/><path d="M 87.81 307.33 A 43.9 43.9 0 0 1  131.71 263.43 L 131.71 307.33" fill="#deaabe"/><rect x="131.71414285714286" y="263.4282857142857" width="43.904714285714284" height="43.904714285714284" fill="#ffffff"/><path d="M 131.71 285.38 A 21.95 21.95 0 0 1  153.66 307.33 L 131.71 285.38 A 21.95 21.95 0 0 0 153.66 307.33" fill="#dda9bd"/><path d="M 439.05 307.33 A 43.9 43.9 0 0 0 482.95 263.43 L 439.05 263.43" fill="#f0d7de"/><rect x="658.5707142857143" y="263.4282857142857" width="43.904714285714284" height="43.904714285714284" fill="#ffffff"/><path d="M 680.52 285.38 A 21.95 21.95 0 0 1  702.47 263.43 L 680.52 285.38 A 21.95 21.95 0 0 0 702.47 263.43" fill="#f3dfe5"/></g></svg>