<?xml version="1.0" standalone="no"?><svg xmlns:xlink="http://www.w3.org/1999/xlink" xmlns="http://www.w3.org/2000/svg" viewBox="0 0 1000 357.13181744759925" preserveAspectRatio="xMaxYMax slice"><g transform="scale(1.1620731850450479)"><rect x="0" y="0" width="860.5323999999999" height="307.33299999999997" fill="#ffffff"/><rect x="61.46659999999999" y="0" width="61.46659999999999" height="61.46659999999999" fill="#ffffff"/><rect x="122.93319999999999" y="0" width="61.46659999999999" height="61.46659999999999" fill="#ffffff"/><path d="M 153.67 30.73 A 30.73 30.73 0 0 1  184.39999999999998 0 L 153.67 30.73 A 30.73 30.73 0 0 0 184.39999999999998 0" fill="#ffcad7"/><rect x="491.73279999999994" y="0" width="61.46659999999999" height="61.46659999999999" fill="#ffffff"/><path d="M 522.47 61.46 A 30.73 30.73 0 0 1  553.2 30.73 L 522.47 61.46 A 30.73 30.73 0 0 0 553.2 30.73" fill="#ffb6c7"/><rect x="553.1994" y="0" width="61.46659999999999" height="61.46659999999999" fill="#ffffff"/><path d="M 553.2 30.73 A 30.73 30.73 0 0 1  583.9300000000001 0 L 553.2 30.73 A 30.73 30.73 0 0 0 583.9300000000001 0" fill="#ebccd8"/><rect x="0" y="61.46659999999999" width="61.46659999999999" height="61.46659999999999" fill="#ffffff"/><rect x="61.46659999999999" y="61.46659999999999" width="61.46659999999999" height="61.46659999999999" fill="#ffffff"/><rect x="184.39979999999997" y="61.46659999999999" width="61.46659999999999" height="61.46659999999999" fill="#ffffff"/><path d="M 215.13 122.93 A 30.73 30.73 0 0 1  245.85999999999999 92.2 L 215.13 122.93 A 30.73 30.73 0 0 0 245.85999999999999 92.2" fill="#ff3f6d"/><rect x="307.33299999999997" y="61.46659999999999" width="61.46659999999999" height="61.46659999999999" fill="#ffffff"/><rect x="0" y="122.93319999999999" width="61.46659999999999" height="61.46659999999999" fill="#ffffff"/><path d="M 30.73 153.66 A 30.73 30.73 0 0 1  61.46 122.93 L 30.73 153.66 A 30.73 30.73 0 0 0 61.46 122.93" fill="#ffa9bd"/><rect x="61.46659999999999" y="122.93319999999999" width="61.46659999999999" height="61.46659999999999" fill="#ffffff"/><path d="M 61.47 184.39999999999998 A 30.73 30.73 0 0 1  92.2 153.67 L 61.47 184.39999999999998 A 30.73 30.73 0 0 0 92.2 153.67" fill="#ff6f91"/><rect x="368.79959999999994" y="122.93319999999999" width="61.46659999999999" height="61.46659999999999" fill="#ffffff"/><rect x="676.1325999999999" y="122.93319999999999" width="61.46659999999999" height="61.46659999999999" fill="#ffffff"/><path d="M 676.13 153.66 A 30.73 30.73 0 0 1  706.86 122.93 L 676.13 153.66 A 30.73 30.73 0 0 0 706.86 122.93" fill="#ff658a"/><path d="M 706.87 122.93 A 30.73 30.73 0 0 1  737.6 153.66 L 706.87 122.93 A 30.73 30.73 0 0 0 737.6 153.66" fill="#ff5e85"/><path d="M 676.13 153.67 A 30.73 30.73 0 0 1  706.86 184.39999999999998 L 676.13 153.67 A 30.73 30.73 0 0 0 706.86 184.39999999999998" fill="#a00a43"/><rect x="737.5991999999999" y="122.93319999999999" width="61.46659999999999" height="61.46659999999999" fill="#ffffff"/><path d="M 737.6 184.39999999999998 A 30.73 30.73 0 0 1  768.33 153.67 L 737.6 184.39999999999998 A 30.73 30.73 0 0 0 768.33 153.67" fill="#e8c4d2"/><rect x="122.93319999999999" y="184.39979999999997" width="61.46659999999999" height="61.46659999999999" fill="#ffffff"/><path d="M 122.93 215.13 A 30.73 30.73 0 0 1  153.66 245.85999999999999 L 122.93 215.13 A 30.73 30.73 0 0 0 153.66 245.85999999999999" fill="#f5e5eb"/><rect x="368.79959999999994" y="184.39979999999997" width="61.46659999999999" height="61.46659999999999" fill="#ffffff"/><rect x="676.1325999999999" y="184.39979999999997" width="61.46659999999999" height="61.46659999999999" fill="#ffffff"/><path d="M 706.87 245.85999999999999 A 30.73 30.73 0 0 1  737.6 215.13 L 706.87 245.85999999999999 A 30.73 30.73 0 0 0 737.6 215.13" fill="#ffecf0"/><rect x="737.5991999999999" y="184.39979999999997" width="61.46659999999999" height="61.46659999999999" fill="#ffffff"/><path d="M 768.33 184.4 A 30.73 30.73 0 0 1  799.0600000000001 215.13 L 768.33 184.4 A 30.73 30.73 0 0 0 799.0600000000001 215.13" fill="#eed4de"/><path d="M 737.6 215.13 A 30.73 30.73 0 0 1  768.33 245.85999999999999 L 737.6 215.13 A 30.73 30.73 0 0 0 768.33 245.85999999999999" fill="#cf84a1"/><path d="M 768.33 245.85999999999999 A 30.73 30.73 0 0 1  799.0600000000001 215.13 L 768.33 245.85999999999999 A 30.73 30.73 0 0 0 799.0600000000001 215.13" fill="#ffaabe"/><rect x="799.0657999999999" y="184.39979999999997" width="61.46659999999999" height="61.46659999999999" fill="#ffffff"/><path d="M 829.8 215.13 A 30.73 30.73 0 0 1  860.53 184.4 L 829.8 215.13 A 30.73 30.73 0 0 0 860.53 184.4" fill="#ffdce4"/><rect x="61.46659999999999" y="245.86639999999997" width="61.46659999999999" height="61.46659999999999" fill="#ffffff"/><path d="M 92.2 307.33000000000004 A 30.73 30.73 0 0 1  122.93 276.6 L 92.2 307.33000000000004 A 30.73 30.73 0 0 0 122.93 276.6" fill="#ff4d77"/><rect x="368.79959999999994" y="245.86639999999997" width="61.46659999999999" height="61.46659999999999" fill="#ffffff"/><path d="M 399.53 307.33000000000004 A 30.73 30.73 0 0 1  430.26 276.6 L 399.53 307.33000000000004 A 30.73 30.73 0 0 0 430.26 276.6" fill="#ffa6bb"/><rect x="491.73279999999994" y="245.86639999999997" width="61.46659999999999" height="61.46659999999999" fill="#ffffff"/><path d="M 491.73 245.87 A 30.73 30.73 0 0 1  522.46 276.6 L 491.73 245.87 A 30.73 30.73 0 0 0 522.46 276.6" fill="#e7c0cf"/><rect x="614.6659999999999" y="245.86639999999997" width="61.46659999999999" height="61.46659999999999" fill="#ffffff"/><path d="M 645.4 276.6 A 30.73 30.73 0 0 1  676.13 245.87 L 645.4 276.6 A 30.73 30.73 0 0 0 676.13 245.87" fill="#deabbf"/><path d="M 614.67 276.6 A 30.73 30.73 0 0 1  645.4 307.33000000000004 L 614.67 276.6 A 30.73 30.73 0 0 0 645.4 307.33000000000004" fill="#ff7294"/><rect x="676.1325999999999" y="245.86639999999997" width="61.46659999999999" height="61.46659999999999" fill="#ffffff"/><path d="M 676.13 307.33000000000004 A 30.73 30.73 0 0 1  706.86 276.6 L 676.13 307.33000000000004 A 30.73 30.73 0 0 0 706.86 276.6" fill="#a3124a"/></g></svg>