<svg xmlns="http://www.w3.org/2000/svg" version="1.1" xmlns:xlink="http://www.w3.org/1999/xlink" xmlns:svgjs="http://svgjs.com/svgjs" width="1440" height="700" preserveAspectRatio="none" viewBox="0 0 1440 700"><g mask="url(&quot;#SvgjsMask1000&quot;)" fill="none"><rect width="1440" height="700" x="0" y="0" fill="rgba(255, 255, 255, 1)"></rect><path d="M-67.69 552.88L-67.69 552.88" stroke="rgba(255, 212, 224, 1)" stroke-width="1.5"></path><path d="M-67.69 552.88L-67.29 637.63" stroke="rgba(255, 212, 224, 1)" stroke-width="1.5"></path><path d="M-67.69 552.88L100.15 536.67" stroke="rgba(255, 212, 224, 1)" stroke-width="1.5"></path><path d="M-67.29 637.63L-67.29 637.63" stroke="rgba(255, 212, 224, 1)" stroke-width="1.5"></path><path d="M-67.29 637.63L97.12 686.67" stroke="rgba(255, 212, 224, 1)" stroke-width="1.5"></path><path d="M-67.29 637.63L-38.81 819.47" stroke="rgba(255, 212, 224, 1)" stroke-width="1.5"></path><path d="M-38.81 819.47L-38.81 819.47" stroke="rgba(255, 212, 224, 1)" stroke-width="1.5"></path><path d="M-38.81 819.47L112.05 860.67" stroke="rgba(255, 212, 224, 1)" stroke-width="1.5"></path><path d="M-38.81 819.47L97.12 686.67" stroke="rgba(255, 212, 224, 1)" stroke-width="1.5"></path><path d="M-38.81 819.47L-67.69 552.88" stroke="rgba(255, 212, 224, 1)" stroke-width="1.5"></path><path d="M-38.81 819.47L100.15 536.67" stroke="rgba(255, 212, 224, 1)" stroke-width="1.5"></path><path d="M-38.81 819.47L237.79 643.08" stroke="rgba(255, 212, 224, 1)" stroke-width="1.5"></path><path d="M100.15 536.67L100.15 536.67" stroke="rgba(255, 212, 224, 1)" stroke-width="1.5"></path><path d="M100.15 536.67L206.76 487.82" stroke="rgba(255, 212, 224, 1)" stroke-width="1.5"></path><path d="M100.15 536.67L97.12 686.67" stroke="rgba(255, 212, 224, 1)" stroke-width="1.5"></path><path d="M97.12 686.67L97.12 686.67" stroke="rgba(255, 212, 224, 1)" stroke-width="1.5"></path><path d="M97.12 686.67L237.79 643.08" stroke="rgba(255, 212, 224, 1)" stroke-width="1.5"></path><path d="M112.05 860.67L112.05 860.67" stroke="rgba(255, 212, 224, 1)" stroke-width="1.5"></path><path d="M112.05 860.67L97.12 686.67" stroke="rgba(255, 212, 224, 1)" stroke-width="1.5"></path><path d="M112.05 860.67L237.79 643.08" stroke="rgba(255, 212, 224, 1)" stroke-width="1.5"></path><path d="M112.05 860.67L-67.29 637.63" stroke="rgba(255, 212, 224, 1)" stroke-width="1.5"></path><path d="M206.76 487.82L206.76 487.82" stroke="rgba(255, 212, 224, 1)" stroke-width="1.5"></path><path d="M206.76 487.82L237.79 643.08" stroke="rgba(255, 212, 224, 1)" stroke-width="1.5"></path><path d="M237.79 643.08L237.79 643.08" stroke="rgba(255, 212, 224, 1)" stroke-width="1.5"></path><path d="M237.79 643.08L372.78 704.07" stroke="rgba(255, 212, 224, 1)" stroke-width="1.5"></path><path d="M400.76 391.34L400.76 391.34" stroke="rgba(255, 212, 224, 1)" stroke-width="1.5"></path><path d="M400.76 391.34L373.6 504.28" stroke="rgba(255, 212, 224, 1)" stroke-width="1.5"></path><path d="M400.76 391.34L542.95 350.47" stroke="rgba(255, 212, 224, 1)" stroke-width="1.5"></path><path d="M400.76 391.34L540.46 539.75" stroke="rgba(255, 212, 224, 1)" stroke-width="1.5"></path><path d="M400.76 391.34L206.76 487.82" stroke="rgba(255, 212, 224, 1)" stroke-width="1.5"></path><path d="M400.76 391.34L673.82 407" stroke="rgba(255, 212, 224, 1)" stroke-width="1.5"></path><path d="M400.76 391.34L672.8 502.81" stroke="rgba(255, 212, 224, 1)" stroke-width="1.5"></path><path d="M373.6 504.28L373.6 504.28" stroke="rgba(255, 212, 224, 1)" stroke-width="1.5"></path><path d="M373.6 504.28L206.76 487.82" stroke="rgba(255, 212, 224, 1)" stroke-width="1.5"></path><path d="M372.78 704.07L372.78 704.07" stroke="rgba(255, 212, 224, 1)" stroke-width="1.5"></path><path d="M372.78 704.07L489.13 854.66" stroke="rgba(255, 212, 224, 1)" stroke-width="1.5"></path><path d="M372.78 704.07L373.6 504.28" stroke="rgba(255, 212, 224, 1)" stroke-width="1.5"></path><path d="M542.95 350.47L542.95 350.47" stroke="rgba(255, 212, 224, 1)" stroke-width="1.5"></path><path d="M542.95 350.47L673.82 407" stroke="rgba(255, 212, 224, 1)" stroke-width="1.5"></path><path d="M540.46 539.75L540.46 539.75" stroke="rgba(255, 212, 224, 1)" stroke-width="1.5"></path><path d="M540.46 539.75L672.8 502.81" stroke="rgba(255, 212, 224, 1)" stroke-width="1.5"></path><path d="M540.46 539.75L373.6 504.28" stroke="rgba(255, 212, 224, 1)" stroke-width="1.5"></path><path d="M540.46 539.75L673.82 407" stroke="rgba(255, 212, 224, 1)" stroke-width="1.5"></path><path d="M540.46 539.75L542.95 350.47" stroke="rgba(255, 212, 224, 1)" stroke-width="1.5"></path><path d="M540.46 539.75L372.78 704.07" stroke="rgba(255, 212, 224, 1)" stroke-width="1.5"></path><path d="M489.13 854.66L489.13 854.66" stroke="rgba(255, 212, 224, 1)" stroke-width="1.5"></path><path d="M489.13 854.66L644.47 842.28" stroke="rgba(255, 212, 224, 1)" stroke-width="1.5"></path><path d="M489.13 854.66L704.18 711.16" stroke="rgba(255, 212, 224, 1)" stroke-width="1.5"></path><path d="M489.13 854.66L540.46 539.75" stroke="rgba(255, 212, 224, 1)" stroke-width="1.5"></path><path d="M673.82 407L673.82 407" stroke="rgba(255, 212, 224, 1)" stroke-width="1.5"></path><path d="M673.82 407L672.8 502.81" stroke="rgba(255, 212, 224, 1)" stroke-width="1.5"></path><path d="M673.82 407L830.65 346.21" stroke="rgba(255, 212, 224, 1)" stroke-width="1.5"></path><path d="M672.8 502.81L672.8 502.81" stroke="rgba(255, 212, 224, 1)" stroke-width="1.5"></path><path d="M672.8 502.81L858.76 545.19" stroke="rgba(255, 212, 224, 1)" stroke-width="1.5"></path><path d="M672.8 502.81L542.95 350.47" stroke="rgba(255, 212, 224, 1)" stroke-width="1.5"></path><path d="M672.8 502.81L798.39 661.37" stroke="rgba(255, 212, 224, 1)" stroke-width="1.5"></path><path d="M672.8 502.81L704.18 711.16" stroke="rgba(255, 212, 224, 1)" stroke-width="1.5"></path><path d="M704.18 711.16L704.18 711.16" stroke="rgba(255, 212, 224, 1)" stroke-width="1.5"></path><path d="M704.18 711.16L798.39 661.37" stroke="rgba(255, 212, 224, 1)" stroke-width="1.5"></path><path d="M704.18 711.16L644.47 842.28" stroke="rgba(255, 212, 224, 1)" stroke-width="1.5"></path><path d="M704.18 711.16L840.1 839.32" stroke="rgba(255, 212, 224, 1)" stroke-width="1.5"></path><path d="M704.18 711.16L858.76 545.19" stroke="rgba(255, 212, 224, 1)" stroke-width="1.5"></path><path d="M644.47 842.28L644.47 842.28" stroke="rgba(255, 212, 224, 1)" stroke-width="1.5"></path><path d="M644.47 842.28L840.1 839.32" stroke="rgba(255, 212, 224, 1)" stroke-width="1.5"></path><path d="M644.47 842.28L798.39 661.37" stroke="rgba(255, 212, 224, 1)" stroke-width="1.5"></path><path d="M644.47 842.28L372.78 704.07" stroke="rgba(255, 212, 224, 1)" stroke-width="1.5"></path><path d="M823.65 203.13L823.65 203.13" stroke="rgba(255, 212, 224, 1)" stroke-width="1.5"></path><path d="M823.65 203.13L830.65 346.21" stroke="rgba(255, 212, 224, 1)" stroke-width="1.5"></path><path d="M823.65 203.13L1002.28 229.74" stroke="rgba(255, 212, 224, 1)" stroke-width="1.5"></path><path d="M830.65 346.21L830.65 346.21" stroke="rgba(255, 212, 224, 1)" stroke-width="1.5"></path><path d="M830.65 346.21L989.6 411.76" stroke="rgba(255, 212, 224, 1)" stroke-width="1.5"></path><path d="M858.76 545.19L858.76 545.19" stroke="rgba(255, 212, 224, 1)" stroke-width="1.5"></path><path d="M858.76 545.19L960.94 556.38" stroke="rgba(255, 212, 224, 1)" stroke-width="1.5"></path><path d="M858.76 545.19L798.39 661.37" stroke="rgba(255, 212, 224, 1)" stroke-width="1.5"></path><path d="M858.76 545.19L957.04 685.74" stroke="rgba(255, 212, 224, 1)" stroke-width="1.5"></path><path d="M858.76 545.19L989.6 411.76" stroke="rgba(255, 212, 224, 1)" stroke-width="1.5"></path><path d="M798.39 661.37L798.39 661.37" stroke="rgba(255, 212, 224, 1)" stroke-width="1.5"></path><path d="M798.39 661.37L957.04 685.74" stroke="rgba(255, 212, 224, 1)" stroke-width="1.5"></path><path d="M798.39 661.37L840.1 839.32" stroke="rgba(255, 212, 224, 1)" stroke-width="1.5"></path><path d="M798.39 661.37L960.94 556.38" stroke="rgba(255, 212, 224, 1)" stroke-width="1.5"></path><path d="M840.1 839.32L840.1 839.32" stroke="rgba(255, 212, 224, 1)" stroke-width="1.5"></path><path d="M840.1 839.32L957.04 685.74" stroke="rgba(255, 212, 224, 1)" stroke-width="1.5"></path><path d="M840.1 839.32L1101.07 828.78" stroke="rgba(255, 212, 224, 1)" stroke-width="1.5"></path><path d="M997.58 -99.32L997.58 -99.32" stroke="rgba(255, 212, 224, 1)" stroke-width="1.5"></path><path d="M997.58 -99.32L1011.02 109.14" stroke="rgba(255, 212, 224, 1)" stroke-width="1.5"></path><path d="M997.58 -99.32L1125.1 98.11" stroke="rgba(255, 212, 224, 1)" stroke-width="1.5"></path><path d="M997.58 -99.32L1305.46 -92.51" stroke="rgba(255, 212, 224, 1)" stroke-width="1.5"></path><path d="M997.58 -99.32L1131.13 193.74" stroke="rgba(255, 212, 224, 1)" stroke-width="1.5"></path><path d="M1011.02 109.14L1011.02 109.14" stroke="rgba(255, 212, 224, 1)" stroke-width="1.5"></path><path d="M1011.02 109.14L1125.1 98.11" stroke="rgba(255, 212, 224, 1)" stroke-width="1.5"></path><path d="M1011.02 109.14L1002.28 229.74" stroke="rgba(255, 212, 224, 1)" stroke-width="1.5"></path><path d="M1011.02 109.14L1131.13 193.74" stroke="rgba(255, 212, 224, 1)" stroke-width="1.5"></path><path d="M1002.28 229.74L1002.28 229.74" stroke="rgba(255, 212, 224, 1)" stroke-width="1.5"></path><path d="M1002.28 229.74L1131.13 193.74" stroke="rgba(255, 212, 224, 1)" stroke-width="1.5"></path><path d="M989.6 411.76L989.6 411.76" stroke="rgba(255, 212, 224, 1)" stroke-width="1.5"></path><path d="M989.6 411.76L1098.3 346.02" stroke="rgba(255, 212, 224, 1)" stroke-width="1.5"></path><path d="M989.6 411.76L960.94 556.38" stroke="rgba(255, 212, 224, 1)" stroke-width="1.5"></path><path d="M960.94 556.38L960.94 556.38" stroke="rgba(255, 212, 224, 1)" stroke-width="1.5"></path><path d="M960.94 556.38L957.04 685.74" stroke="rgba(255, 212, 224, 1)" stroke-width="1.5"></path><path d="M960.94 556.38L1090.65 556.34" stroke="rgba(255, 212, 224, 1)" stroke-width="1.5"></path><path d="M960.94 556.38L830.65 346.21" stroke="rgba(255, 212, 224, 1)" stroke-width="1.5"></path><path d="M957.04 685.74L957.04 685.74" stroke="rgba(255, 212, 224, 1)" stroke-width="1.5"></path><path d="M957.04 685.74L1090.65 556.34" stroke="rgba(255, 212, 224, 1)" stroke-width="1.5"></path><path d="M957.04 685.74L1101.07 828.78" stroke="rgba(255, 212, 224, 1)" stroke-width="1.5"></path><path d="M1125.1 98.11L1125.1 98.11" stroke="rgba(255, 212, 224, 1)" stroke-width="1.5"></path><path d="M1125.1 98.11L1131.13 193.74" stroke="rgba(255, 212, 224, 1)" stroke-width="1.5"></path><path d="M1131.13 193.74L1131.13 193.74" stroke="rgba(255, 212, 224, 1)" stroke-width="1.5"></path><path d="M1131.13 193.74L1250.81 226.44" stroke="rgba(255, 212, 224, 1)" stroke-width="1.5"></path><path d="M1098.3 346.02L1098.3 346.02" stroke="rgba(255, 212, 224, 1)" stroke-width="1.5"></path><path d="M1098.3 346.02L1002.28 229.74" stroke="rgba(255, 212, 224, 1)" stroke-width="1.5"></path><path d="M1090.65 556.34L1090.65 556.34" stroke="rgba(255, 212, 224, 1)" stroke-width="1.5"></path><path d="M1090.65 556.34L989.6 411.76" stroke="rgba(255, 212, 224, 1)" stroke-width="1.5"></path><path d="M1101.07 828.78L1101.07 828.78" stroke="rgba(255, 212, 224, 1)" stroke-width="1.5"></path><path d="M1101.07 828.78L1272.77 824.71" stroke="rgba(255, 212, 224, 1)" stroke-width="1.5"></path><path d="M1305.46 -92.51L1305.46 -92.51" stroke="rgba(255, 212, 224, 1)" stroke-width="1.5"></path><path d="M1305.46 -92.51L1406.47 -46.34" stroke="rgba(255, 212, 224, 1)" stroke-width="1.5"></path><path d="M1305.46 -92.51L1311.43 80.36" stroke="rgba(255, 212, 224, 1)" stroke-width="1.5"></path><path d="M1305.46 -92.51L1409.79 90.04" stroke="rgba(255, 212, 224, 1)" stroke-width="1.5"></path><path d="M1305.46 -92.51L1125.1 98.11" stroke="rgba(255, 212, 224, 1)" stroke-width="1.5"></path><path d="M1305.46 -92.51L1571.6 -104.57" stroke="rgba(255, 212, 224, 1)" stroke-width="1.5"></path><path d="M1311.43 80.36L1311.43 80.36" stroke="rgba(255, 212, 224, 1)" stroke-width="1.5"></path><path d="M1311.43 80.36L1409.79 90.04" stroke="rgba(255, 212, 224, 1)" stroke-width="1.5"></path><path d="M1311.43 80.36L1250.81 226.44" stroke="rgba(255, 212, 224, 1)" stroke-width="1.5"></path><path d="M1311.43 80.36L1406.47 -46.34" stroke="rgba(255, 212, 224, 1)" stroke-width="1.5"></path><path d="M1311.43 80.36L1125.1 98.11" stroke="rgba(255, 212, 224, 1)" stroke-width="1.5"></path><path d="M1250.81 226.44L1250.81 226.44" stroke="rgba(255, 212, 224, 1)" stroke-width="1.5"></path><path d="M1250.81 226.44L1253.38 364.94" stroke="rgba(255, 212, 224, 1)" stroke-width="1.5"></path><path d="M1253.38 364.94L1253.38 364.94" stroke="rgba(255, 212, 224, 1)" stroke-width="1.5"></path><path d="M1253.38 364.94L1390.83 371.55" stroke="rgba(255, 212, 224, 1)" stroke-width="1.5"></path><path d="M1253.38 364.94L1098.3 346.02" stroke="rgba(255, 212, 224, 1)" stroke-width="1.5"></path><path d="M1253.38 364.94L1300.06 523.33" stroke="rgba(255, 212, 224, 1)" stroke-width="1.5"></path><path d="M1300.06 523.33L1300.06 523.33" stroke="rgba(255, 212, 224, 1)" stroke-width="1.5"></path><path d="M1300.06 523.33L1428.12 507.32" stroke="rgba(255, 212, 224, 1)" stroke-width="1.5"></path><path d="M1300.06 523.33L1390.83 371.55" stroke="rgba(255, 212, 224, 1)" stroke-width="1.5"></path><path d="M1300.06 523.33L1090.65 556.34" stroke="rgba(255, 212, 224, 1)" stroke-width="1.5"></path><path d="M1300.06 523.33L1459.82 671.55" stroke="rgba(255, 212, 224, 1)" stroke-width="1.5"></path><path d="M1300.06 523.33L1098.3 346.02" stroke="rgba(255, 212, 224, 1)" stroke-width="1.5"></path><path d="M1272.77 824.71L1272.77 824.71" stroke="rgba(255, 212, 224, 1)" stroke-width="1.5"></path><path d="M1272.77 824.71L1443.15 817.9" stroke="rgba(255, 212, 224, 1)" stroke-width="1.5"></path><path d="M1272.77 824.71L1459.82 671.55" stroke="rgba(255, 212, 224, 1)" stroke-width="1.5"></path><path d="M1406.47 -46.34L1406.47 -46.34" stroke="rgba(255, 212, 224, 1)" stroke-width="1.5"></path><path d="M1406.47 -46.34L1409.79 90.04" stroke="rgba(255, 212, 224, 1)" stroke-width="1.5"></path><path d="M1409.79 90.04L1409.79 90.04" stroke="rgba(255, 212, 224, 1)" stroke-width="1.5"></path><path d="M1409.79 90.04L1445.31 227.64" stroke="rgba(255, 212, 224, 1)" stroke-width="1.5"></path><path d="M1409.79 90.04L1598.37 45.38" stroke="rgba(255, 212, 224, 1)" stroke-width="1.5"></path><path d="M1409.79 90.04L1250.81 226.44" stroke="rgba(255, 212, 224, 1)" stroke-width="1.5"></path><path d="M1445.31 227.64L1445.31 227.64" stroke="rgba(255, 212, 224, 1)" stroke-width="1.5"></path><path d="M1445.31 227.64L1572.85 238.3" stroke="rgba(255, 212, 224, 1)" stroke-width="1.5"></path><path d="M1445.31 227.64L1390.83 371.55" stroke="rgba(255, 212, 224, 1)" stroke-width="1.5"></path><path d="M1445.31 227.64L1250.81 226.44" stroke="rgba(255, 212, 224, 1)" stroke-width="1.5"></path><path d="M1390.83 371.55L1390.83 371.55" stroke="rgba(255, 212, 224, 1)" stroke-width="1.5"></path><path d="M1390.83 371.55L1428.12 507.32" stroke="rgba(255, 212, 224, 1)" stroke-width="1.5"></path><path d="M1428.12 507.32L1428.12 507.32" stroke="rgba(255, 212, 224, 1)" stroke-width="1.5"></path><path d="M1428.12 507.32L1459.82 671.55" stroke="rgba(255, 212, 224, 1)" stroke-width="1.5"></path><path d="M1428.12 507.32L1598.66 362.75" stroke="rgba(255, 212, 224, 1)" stroke-width="1.5"></path><path d="M1428.12 507.32L1253.38 364.94" stroke="rgba(255, 212, 224, 1)" stroke-width="1.5"></path><path d="M1428.12 507.32L1590.44 689.2" stroke="rgba(255, 212, 224, 1)" stroke-width="1.5"></path><path d="M1459.82 671.55L1459.82 671.55" stroke="rgba(255, 212, 224, 1)" stroke-width="1.5"></path><path d="M1459.82 671.55L1590.44 689.2" stroke="rgba(255, 212, 224, 1)" stroke-width="1.5"></path><path d="M1459.82 671.55L1443.15 817.9" stroke="rgba(255, 212, 224, 1)" stroke-width="1.5"></path><path d="M1459.82 671.55L1562.02 859.64" stroke="rgba(255, 212, 224, 1)" stroke-width="1.5"></path><path d="M1443.15 817.9L1443.15 817.9" stroke="rgba(255, 212, 224, 1)" stroke-width="1.5"></path><path d="M1443.15 817.9L1562.02 859.64" stroke="rgba(255, 212, 224, 1)" stroke-width="1.5"></path><path d="M1443.15 817.9L1590.44 689.2" stroke="rgba(255, 212, 224, 1)" stroke-width="1.5"></path><path d="M1443.15 817.9L1428.12 507.32" stroke="rgba(255, 212, 224, 1)" stroke-width="1.5"></path><path d="M1571.6 -104.57L1571.6 -104.57" stroke="rgba(255, 212, 224, 1)" stroke-width="1.5"></path><path d="M1571.6 -104.57L1598.37 45.38" stroke="rgba(255, 212, 224, 1)" stroke-width="1.5"></path><path d="M1571.6 -104.57L1406.47 -46.34" stroke="rgba(255, 212, 224, 1)" stroke-width="1.5"></path><path d="M1598.37 45.38L1598.37 45.38" stroke="rgba(255, 212, 224, 1)" stroke-width="1.5"></path><path d="M1598.37 45.38L1572.85 238.3" stroke="rgba(255, 212, 224, 1)" stroke-width="1.5"></path><path d="M1572.85 238.3L1572.85 238.3" stroke="rgba(255, 212, 224, 1)" stroke-width="1.5"></path><path d="M1572.85 238.3L1598.66 362.75" stroke="rgba(255, 212, 224, 1)" stroke-width="1.5"></path><path d="M1572.85 238.3L1409.79 90.04" stroke="rgba(255, 212, 224, 1)" stroke-width="1.5"></path><path d="M1572.85 238.3L1390.83 371.55" stroke="rgba(255, 212, 224, 1)" stroke-width="1.5"></path><path d="M1572.85 238.3L1311.43 80.36" stroke="rgba(255, 212, 224, 1)" stroke-width="1.5"></path><path d="M1598.66 362.75L1598.66 362.75" stroke="rgba(255, 212, 224, 1)" stroke-width="1.5"></path><path d="M1598.66 362.75L1445.31 227.64" stroke="rgba(255, 212, 224, 1)" stroke-width="1.5"></path><path d="M1598.66 362.75L1390.83 371.55" stroke="rgba(255, 212, 224, 1)" stroke-width="1.5"></path><path d="M1590.44 689.2L1590.44 689.2" stroke="rgba(255, 212, 224, 1)" stroke-width="1.5"></path><path d="M1590.44 689.2L1562.02 859.64" stroke="rgba(255, 212, 224, 1)" stroke-width="1.5"></path><path d="M1562.02 859.64L1562.02 859.64" stroke="rgba(255, 212, 224, 1)" stroke-width="1.5"></path><circle r="5" cx="-67.69" cy="552.88" fill="rgba(255, 212, 224, 1)"></circle><circle r="5" cx="-67.29" cy="637.63" fill="rgba(255, 212, 224, 1)"></circle><circle r="5" cx="-38.81" cy="819.47" fill="rgba(255, 212, 224, 1)"></circle><circle r="5" cx="100.15" cy="536.67" fill="rgba(255, 212, 224, 1)"></circle><circle r="5" cx="97.12" cy="686.67" fill="rgba(255, 212, 224, 1)"></circle><circle r="5" cx="112.05" cy="860.67" fill="rgba(255, 212, 224, 1)"></circle><circle r="5" cx="206.76" cy="487.82" fill="rgba(255, 212, 224, 1)"></circle><circle r="5" cx="237.79" cy="643.08" fill="rgba(255, 212, 224, 1)"></circle><circle r="5" cx="400.76" cy="391.34" fill="rgba(255, 212, 224, 1)"></circle><circle r="5" cx="373.6" cy="504.28" fill="rgba(255, 212, 224, 1)"></circle><circle r="5" cx="372.78" cy="704.07" fill="rgba(255, 212, 224, 1)"></circle><circle r="5" cx="542.95" cy="350.47" fill="rgba(255, 212, 224, 1)"></circle><circle r="5" cx="540.46" cy="539.75" fill="rgba(255, 212, 224, 1)"></circle><circle r="5" cx="489.13" cy="854.66" fill="rgba(255, 212, 224, 1)"></circle><circle r="5" cx="673.82" cy="407" fill="rgba(255, 212, 224, 1)"></circle><circle r="5" cx="672.8" cy="502.81" fill="rgba(255, 212, 224, 1)"></circle><circle r="5" cx="704.18" cy="711.16" fill="rgba(255, 212, 224, 1)"></circle><circle r="5" cx="644.47" cy="842.28" fill="rgba(255, 212, 224, 1)"></circle><circle r="5" cx="823.65" cy="203.13" fill="rgba(255, 212, 224, 1)"></circle><circle r="5" cx="830.65" cy="346.21" fill="rgba(255, 212, 224, 1)"></circle><circle r="5" cx="858.76" cy="545.19" fill="rgba(255, 212, 224, 1)"></circle><circle r="5" cx="798.39" cy="661.37" fill="rgba(255, 212, 224, 1)"></circle><circle r="5" cx="840.1" cy="839.32" fill="rgba(255, 212, 224, 1)"></circle><circle r="5" cx="997.58" cy="-99.32" fill="rgba(255, 212, 224, 1)"></circle><circle r="5" cx="1011.02" cy="109.14" fill="rgba(255, 212, 224, 1)"></circle><circle r="5" cx="1002.28" cy="229.74" fill="rgba(255, 212, 224, 1)"></circle><circle r="5" cx="989.6" cy="411.76" fill="rgba(255, 212, 224, 1)"></circle><circle r="5" cx="960.94" cy="556.38" fill="rgba(255, 212, 224, 1)"></circle><circle r="5" cx="957.04" cy="685.74" fill="rgba(255, 212, 224, 1)"></circle><circle r="5" cx="1125.1" cy="98.11" fill="rgba(255, 212, 224, 1)"></circle><circle r="5" cx="1131.13" cy="193.74" fill="rgba(255, 212, 224, 1)"></circle><circle r="5" cx="1098.3" cy="346.02" fill="rgba(255, 212, 224, 1)"></circle><circle r="5" cx="1090.65" cy="556.34" fill="rgba(255, 212, 224, 1)"></circle><circle r="5" cx="1101.07" cy="828.78" fill="rgba(255, 212, 224, 1)"></circle><circle r="5" cx="1305.46" cy="-92.51" fill="rgba(255, 212, 224, 1)"></circle><circle r="5" cx="1311.43" cy="80.36" fill="rgba(255, 212, 224, 1)"></circle><circle r="5" cx="1250.81" cy="226.44" fill="rgba(255, 212, 224, 1)"></circle><circle r="5" cx="1253.38" cy="364.94" fill="rgba(255, 212, 224, 1)"></circle><circle r="5" cx="1300.06" cy="523.33" fill="rgba(255, 212, 224, 1)"></circle><circle r="5" cx="1272.77" cy="824.71" fill="rgba(255, 212, 224, 1)"></circle><circle r="5" cx="1406.47" cy="-46.34" fill="rgba(255, 212, 224, 1)"></circle><circle r="5" cx="1409.79" cy="90.04" fill="rgba(255, 212, 224, 1)"></circle><circle r="5" cx="1445.31" cy="227.64" fill="rgba(255, 212, 224, 1)"></circle><circle r="5" cx="1390.83" cy="371.55" fill="rgba(255, 212, 224, 1)"></circle><circle r="5" cx="1428.12" cy="507.32" fill="rgba(255, 212, 224, 1)"></circle><circle r="5" cx="1459.82" cy="671.55" fill="rgba(255, 212, 224, 1)"></circle><circle r="5" cx="1443.15" cy="817.9" fill="rgba(255, 212, 224, 1)"></circle><circle r="5" cx="1571.6" cy="-104.57" fill="rgba(255, 212, 224, 1)"></circle><circle r="5" cx="1598.37" cy="45.38" fill="rgba(255, 212, 224, 1)"></circle><circle r="5" cx="1572.85" cy="238.3" fill="rgba(255, 212, 224, 1)"></circle><circle r="5" cx="1598.66" cy="362.75" fill="rgba(255, 212, 224, 1)"></circle><circle r="5" cx="1590.44" cy="689.2" fill="rgba(255, 212, 224, 1)"></circle><circle r="5" cx="1562.02" cy="859.64" fill="rgba(255, 212, 224, 1)"></circle><path d="M683.22 509.2L683.22 509.2" stroke="hsl(336.9, 100%, 39.8%)" stroke-width="1.5"></path><path d="M683.22 509.2L554.47 500.53" stroke="hsl(336.9, 100%, 39.8%)" stroke-width="1.5"></path><path d="M683.22 509.2L812.25 536.25" stroke="hsl(336.9, 100%, 39.8%)" stroke-width="1.5"></path><path d="M683.22 509.2L654.65 651.62" stroke="hsl(336.9, 100%, 39.8%)" stroke-width="1.5"></path><path d="M683.22 509.2L846.53 683.62" stroke="hsl(336.9, 100%, 39.8%)" stroke-width="1.5"></path><path d="M683.22 509.2L508.28 676.77" stroke="hsl(336.9, 100%, 39.8%)" stroke-width="1.5"></path><path d="M638.89 851.63L638.89 851.63" stroke="hsl(336.9, 100%, 39.8%)" stroke-width="1.5"></path><path d="M638.89 851.63L529.31 852.33" stroke="hsl(336.9, 100%, 39.8%)" stroke-width="1.5"></path><path d="M638.89 851.63L797.93 806.32" stroke="hsl(336.9, 100%, 39.8%)" stroke-width="1.5"></path><path d="M638.89 851.63L654.65 651.62" stroke="hsl(336.9, 100%, 39.8%)" stroke-width="1.5"></path><path d="M638.89 851.63L508.28 676.77" stroke="hsl(336.9, 100%, 39.8%)" stroke-width="1.5"></path><path d="M638.89 851.63L385.54 825.88" stroke="hsl(336.9, 100%, 39.8%)" stroke-width="1.5"></path><path d="M638.89 851.63L846.53 683.62" stroke="hsl(336.9, 100%, 39.8%)" stroke-width="1.5"></path><path d="M812.25 536.25L812.25 536.25" stroke="hsl(336.9, 100%, 39.8%)" stroke-width="1.5"></path><path d="M812.25 536.25L846.53 683.62" stroke="hsl(336.9, 100%, 39.8%)" stroke-width="1.5"></path><path d="M812.25 536.25L967.22 558.04" stroke="hsl(336.9, 100%, 39.8%)" stroke-width="1.5"></path><path d="M812.25 536.25L654.65 651.62" stroke="hsl(336.9, 100%, 39.8%)" stroke-width="1.5"></path><path d="M1011.71 401.5L1011.71 401.5" stroke="hsl(336.9, 100%, 39.8%)" stroke-width="1.5"></path><path d="M1011.71 401.5L1124.14 339.53" stroke="hsl(336.9, 100%, 39.8%)" stroke-width="1.5"></path><path d="M1011.71 401.5L1109.44 499.52" stroke="hsl(336.9, 100%, 39.8%)" stroke-width="1.5"></path><path d="M1011.71 401.5L967.22 558.04" stroke="hsl(336.9, 100%, 39.8%)" stroke-width="1.5"></path><path d="M1011.71 401.5L1109.44 236.04" stroke="hsl(336.9, 100%, 39.8%)" stroke-width="1.5"></path><path d="M1011.71 401.5L812.25 536.25" stroke="hsl(336.9, 100%, 39.8%)" stroke-width="1.5"></path><path d="M1251.22 343.26L1251.22 343.26" stroke="hsl(336.9, 100%, 39.8%)" stroke-width="1.5"></path><path d="M1251.22 343.26L1297.43 230.66" stroke="hsl(336.9, 100%, 39.8%)" stroke-width="1.5"></path><path d="M1251.22 343.26L1124.14 339.53" stroke="hsl(336.9, 100%, 39.8%)" stroke-width="1.5"></path><path d="M-97.88 676.19L-97.88 676.19" stroke="hsl(336.9, 100%, 39.8%)" stroke-width="1.5"></path><path d="M-97.88 676.19L-96.67 860.55" stroke="hsl(336.9, 100%, 39.8%)" stroke-width="1.5"></path><path d="M-97.88 676.19L51.5 852.21" stroke="hsl(336.9, 100%, 39.8%)" stroke-width="1.5"></path><path d="M-97.88 676.19L198.3 696.27" stroke="hsl(336.9, 100%, 39.8%)" stroke-width="1.5"></path><path d="M-97.88 676.19L189.7 552.53" stroke="hsl(336.9, 100%, 39.8%)" stroke-width="1.5"></path><path d="M-97.88 676.19L217.85 825.54" stroke="hsl(336.9, 100%, 39.8%)" stroke-width="1.5"></path><path d="M-96.67 860.55L-96.67 860.55" stroke="hsl(336.9, 100%, 39.8%)" stroke-width="1.5"></path><path d="M-96.67 860.55L51.5 852.21" stroke="hsl(336.9, 100%, 39.8%)" stroke-width="1.5"></path><path d="M51.5 852.21L51.5 852.21" stroke="hsl(336.9, 100%, 39.8%)" stroke-width="1.5"></path><path d="M51.5 852.21L217.85 825.54" stroke="hsl(336.9, 100%, 39.8%)" stroke-width="1.5"></path><path d="M51.5 852.21L198.3 696.27" stroke="hsl(336.9, 100%, 39.8%)" stroke-width="1.5"></path><path d="M51.5 852.21L189.7 552.53" stroke="hsl(336.9, 100%, 39.8%)" stroke-width="1.5"></path><path d="M51.5 852.21L385.54 825.88" stroke="hsl(336.9, 100%, 39.8%)" stroke-width="1.5"></path><path d="M189.7 552.53L189.7 552.53" stroke="hsl(336.9, 100%, 39.8%)" stroke-width="1.5"></path><path d="M189.7 552.53L198.3 696.27" stroke="hsl(336.9, 100%, 39.8%)" stroke-width="1.5"></path><path d="M189.7 552.53L373.89 674.55" stroke="hsl(336.9, 100%, 39.8%)" stroke-width="1.5"></path><path d="M189.7 552.53L217.85 825.54" stroke="hsl(336.9, 100%, 39.8%)" stroke-width="1.5"></path><path d="M198.3 696.27L198.3 696.27" stroke="hsl(336.9, 100%, 39.8%)" stroke-width="1.5"></path><path d="M198.3 696.27L217.85 825.54" stroke="hsl(336.9, 100%, 39.8%)" stroke-width="1.5"></path><path d="M198.3 696.27L373.89 674.55" stroke="hsl(336.9, 100%, 39.8%)" stroke-width="1.5"></path><path d="M217.85 825.54L217.85 825.54" stroke="hsl(336.9, 100%, 39.8%)" stroke-width="1.5"></path><path d="M373.89 674.55L373.89 674.55" stroke="hsl(336.9, 100%, 39.8%)" stroke-width="1.5"></path><path d="M373.89 674.55L508.28 676.77" stroke="hsl(336.9, 100%, 39.8%)" stroke-width="1.5"></path><path d="M373.89 674.55L385.54 825.88" stroke="hsl(336.9, 100%, 39.8%)" stroke-width="1.5"></path><path d="M373.89 674.55L217.85 825.54" stroke="hsl(336.9, 100%, 39.8%)" stroke-width="1.5"></path><path d="M385.54 825.88L385.54 825.88" stroke="hsl(336.9, 100%, 39.8%)" stroke-width="1.5"></path><path d="M385.54 825.88L529.31 852.33" stroke="hsl(336.9, 100%, 39.8%)" stroke-width="1.5"></path><path d="M385.54 825.88L217.85 825.54" stroke="hsl(336.9, 100%, 39.8%)" stroke-width="1.5"></path><path d="M554.47 500.53L554.47 500.53" stroke="hsl(336.9, 100%, 39.8%)" stroke-width="1.5"></path><path d="M554.47 500.53L654.65 651.62" stroke="hsl(336.9, 100%, 39.8%)" stroke-width="1.5"></path><path d="M554.47 500.53L508.28 676.77" stroke="hsl(336.9, 100%, 39.8%)" stroke-width="1.5"></path><path d="M508.28 676.77L508.28 676.77" stroke="hsl(336.9, 100%, 39.8%)" stroke-width="1.5"></path><path d="M508.28 676.77L654.65 651.62" stroke="hsl(336.9, 100%, 39.8%)" stroke-width="1.5"></path><path d="M508.28 676.77L529.31 852.33" stroke="hsl(336.9, 100%, 39.8%)" stroke-width="1.5"></path><path d="M529.31 852.33L529.31 852.33" stroke="hsl(336.9, 100%, 39.8%)" stroke-width="1.5"></path><path d="M654.65 651.62L654.65 651.62" stroke="hsl(336.9, 100%, 39.8%)" stroke-width="1.5"></path><path d="M846.53 683.62L846.53 683.62" stroke="hsl(336.9, 100%, 39.8%)" stroke-width="1.5"></path><path d="M846.53 683.62L797.93 806.32" stroke="hsl(336.9, 100%, 39.8%)" stroke-width="1.5"></path><path d="M846.53 683.62L982.76 681.67" stroke="hsl(336.9, 100%, 39.8%)" stroke-width="1.5"></path><path d="M846.53 683.62L953.86 809.17" stroke="hsl(336.9, 100%, 39.8%)" stroke-width="1.5"></path><path d="M846.53 683.62L967.22 558.04" stroke="hsl(336.9, 100%, 39.8%)" stroke-width="1.5"></path><path d="M797.93 806.32L797.93 806.32" stroke="hsl(336.9, 100%, 39.8%)" stroke-width="1.5"></path><path d="M797.93 806.32L953.86 809.17" stroke="hsl(336.9, 100%, 39.8%)" stroke-width="1.5"></path><path d="M797.93 806.32L654.65 651.62" stroke="hsl(336.9, 100%, 39.8%)" stroke-width="1.5"></path><path d="M967.22 558.04L967.22 558.04" stroke="hsl(336.9, 100%, 39.8%)" stroke-width="1.5"></path><path d="M967.22 558.04L982.76 681.67" stroke="hsl(336.9, 100%, 39.8%)" stroke-width="1.5"></path><path d="M967.22 558.04L1109.44 499.52" stroke="hsl(336.9, 100%, 39.8%)" stroke-width="1.5"></path><path d="M967.22 558.04L1130.35 645.46" stroke="hsl(336.9, 100%, 39.8%)" stroke-width="1.5"></path><path d="M982.76 681.67L982.76 681.67" stroke="hsl(336.9, 100%, 39.8%)" stroke-width="1.5"></path><path d="M982.76 681.67L953.86 809.17" stroke="hsl(336.9, 100%, 39.8%)" stroke-width="1.5"></path><path d="M982.76 681.67L1130.35 645.46" stroke="hsl(336.9, 100%, 39.8%)" stroke-width="1.5"></path><path d="M982.76 681.67L1113 791.64" stroke="hsl(336.9, 100%, 39.8%)" stroke-width="1.5"></path><path d="M982.76 681.67L1109.44 499.52" stroke="hsl(336.9, 100%, 39.8%)" stroke-width="1.5"></path><path d="M953.86 809.17L953.86 809.17" stroke="hsl(336.9, 100%, 39.8%)" stroke-width="1.5"></path><path d="M1160.18 78.35L1160.18 78.35" stroke="hsl(336.9, 100%, 39.8%)" stroke-width="1.5"></path><path d="M1160.18 78.35L1238.84 97.82" stroke="hsl(336.9, 100%, 39.8%)" stroke-width="1.5"></path><path d="M1160.18 78.35L1109.44 236.04" stroke="hsl(336.9, 100%, 39.8%)" stroke-width="1.5"></path><path d="M1160.18 78.35L1297.43 230.66" stroke="hsl(336.9, 100%, 39.8%)" stroke-width="1.5"></path><path d="M1160.18 78.35L1293.34 -107.91" stroke="hsl(336.9, 100%, 39.8%)" stroke-width="1.5"></path><path d="M1109.44 236.04L1109.44 236.04" stroke="hsl(336.9, 100%, 39.8%)" stroke-width="1.5"></path><path d="M1109.44 236.04L1124.14 339.53" stroke="hsl(336.9, 100%, 39.8%)" stroke-width="1.5"></path><path d="M1124.14 339.53L1124.14 339.53" stroke="hsl(336.9, 100%, 39.8%)" stroke-width="1.5"></path><path d="M1109.44 499.52L1109.44 499.52" stroke="hsl(336.9, 100%, 39.8%)" stroke-width="1.5"></path><path d="M1109.44 499.52L1241.38 522.25" stroke="hsl(336.9, 100%, 39.8%)" stroke-width="1.5"></path><path d="M1109.44 499.52L1130.35 645.46" stroke="hsl(336.9, 100%, 39.8%)" stroke-width="1.5"></path><path d="M1109.44 499.52L1124.14 339.53" stroke="hsl(336.9, 100%, 39.8%)" stroke-width="1.5"></path><path d="M1130.35 645.46L1130.35 645.46" stroke="hsl(336.9, 100%, 39.8%)" stroke-width="1.5"></path><path d="M1130.35 645.46L1113 791.64" stroke="hsl(336.9, 100%, 39.8%)" stroke-width="1.5"></path><path d="M1113 791.64L1113 791.64" stroke="hsl(336.9, 100%, 39.8%)" stroke-width="1.5"></path><path d="M1113 791.64L953.86 809.17" stroke="hsl(336.9, 100%, 39.8%)" stroke-width="1.5"></path><path d="M1113 791.64L1266.98 843.37" stroke="hsl(336.9, 100%, 39.8%)" stroke-width="1.5"></path><path d="M1113 791.64L1299.7 639.76" stroke="hsl(336.9, 100%, 39.8%)" stroke-width="1.5"></path><path d="M1293.34 -107.91L1293.34 -107.91" stroke="hsl(336.9, 100%, 39.8%)" stroke-width="1.5"></path><path d="M1293.34 -107.91L1444.04 -87.57" stroke="hsl(336.9, 100%, 39.8%)" stroke-width="1.5"></path><path d="M1293.34 -107.91L1238.84 97.82" stroke="hsl(336.9, 100%, 39.8%)" stroke-width="1.5"></path><path d="M1293.34 -107.91L1576.83 -78.82" stroke="hsl(336.9, 100%, 39.8%)" stroke-width="1.5"></path><path d="M1293.34 -107.91L1297.43 230.66" stroke="hsl(336.9, 100%, 39.8%)" stroke-width="1.5"></path><path d="M1238.84 97.82L1238.84 97.82" stroke="hsl(336.9, 100%, 39.8%)" stroke-width="1.5"></path><path d="M1238.84 97.82L1297.43 230.66" stroke="hsl(336.9, 100%, 39.8%)" stroke-width="1.5"></path><path d="M1238.84 97.82L1109.44 236.04" stroke="hsl(336.9, 100%, 39.8%)" stroke-width="1.5"></path><path d="M1297.43 230.66L1297.43 230.66" stroke="hsl(336.9, 100%, 39.8%)" stroke-width="1.5"></path><path d="M1297.43 230.66L1390.11 227.15" stroke="hsl(336.9, 100%, 39.8%)" stroke-width="1.5"></path><path d="M1241.38 522.25L1241.38 522.25" stroke="hsl(336.9, 100%, 39.8%)" stroke-width="1.5"></path><path d="M1241.38 522.25L1299.7 639.76" stroke="hsl(336.9, 100%, 39.8%)" stroke-width="1.5"></path><path d="M1299.7 639.76L1299.7 639.76" stroke="hsl(336.9, 100%, 39.8%)" stroke-width="1.5"></path><path d="M1299.7 639.76L1447.48 648.34" stroke="hsl(336.9, 100%, 39.8%)" stroke-width="1.5"></path><path d="M1299.7 639.76L1421.26 526.64" stroke="hsl(336.9, 100%, 39.8%)" stroke-width="1.5"></path><path d="M1299.7 639.76L1130.35 645.46" stroke="hsl(336.9, 100%, 39.8%)" stroke-width="1.5"></path><path d="M1266.98 843.37L1266.98 843.37" stroke="hsl(336.9, 100%, 39.8%)" stroke-width="1.5"></path><path d="M1266.98 843.37L1436.29 829.96" stroke="hsl(336.9, 100%, 39.8%)" stroke-width="1.5"></path><path d="M1266.98 843.37L1299.7 639.76" stroke="hsl(336.9, 100%, 39.8%)" stroke-width="1.5"></path><path d="M1444.04 -87.57L1444.04 -87.57" stroke="hsl(336.9, 100%, 39.8%)" stroke-width="1.5"></path><path d="M1444.04 -87.57L1576.83 -78.82" stroke="hsl(336.9, 100%, 39.8%)" stroke-width="1.5"></path><path d="M1390.11 227.15L1390.11 227.15" stroke="hsl(336.9, 100%, 39.8%)" stroke-width="1.5"></path><path d="M1390.11 227.15L1437.5 343.23" stroke="hsl(336.9, 100%, 39.8%)" stroke-width="1.5"></path><path d="M1390.11 227.15L1251.22 343.26" stroke="hsl(336.9, 100%, 39.8%)" stroke-width="1.5"></path><path d="M1390.11 227.15L1578.69 248.58" stroke="hsl(336.9, 100%, 39.8%)" stroke-width="1.5"></path><path d="M1390.11 227.15L1238.84 97.82" stroke="hsl(336.9, 100%, 39.8%)" stroke-width="1.5"></path><path d="M1390.11 227.15L1563.85 401.64" stroke="hsl(336.9, 100%, 39.8%)" stroke-width="1.5"></path><path d="M1437.5 343.23L1437.5 343.23" stroke="hsl(336.9, 100%, 39.8%)" stroke-width="1.5"></path><path d="M1437.5 343.23L1563.85 401.64" stroke="hsl(336.9, 100%, 39.8%)" stroke-width="1.5"></path><path d="M1437.5 343.23L1578.69 248.58" stroke="hsl(336.9, 100%, 39.8%)" stroke-width="1.5"></path><path d="M1421.26 526.64L1421.26 526.64" stroke="hsl(336.9, 100%, 39.8%)" stroke-width="1.5"></path><path d="M1421.26 526.64L1447.48 648.34" stroke="hsl(336.9, 100%, 39.8%)" stroke-width="1.5"></path><path d="M1421.26 526.64L1576.83 510.85" stroke="hsl(336.9, 100%, 39.8%)" stroke-width="1.5"></path><path d="M1447.48 648.34L1447.48 648.34" stroke="hsl(336.9, 100%, 39.8%)" stroke-width="1.5"></path><path d="M1447.48 648.34L1436.29 829.96" stroke="hsl(336.9, 100%, 39.8%)" stroke-width="1.5"></path><path d="M1447.48 648.34L1576.83 510.85" stroke="hsl(336.9, 100%, 39.8%)" stroke-width="1.5"></path><path d="M1436.29 829.96L1436.29 829.96" stroke="hsl(336.9, 100%, 39.8%)" stroke-width="1.5"></path><path d="M1436.29 829.96L1568.67 805.95" stroke="hsl(336.9, 100%, 39.8%)" stroke-width="1.5"></path><path d="M1576.83 -78.82L1576.83 -78.82" stroke="hsl(336.9, 100%, 39.8%)" stroke-width="1.5"></path><path d="M1576.83 -78.82L1605.92 53.27" stroke="hsl(336.9, 100%, 39.8%)" stroke-width="1.5"></path><path d="M1576.83 -78.82L1578.69 248.58" stroke="hsl(336.9, 100%, 39.8%)" stroke-width="1.5"></path><path d="M1576.83 -78.82L1390.11 227.15" stroke="hsl(336.9, 100%, 39.8%)" stroke-width="1.5"></path><path d="M1576.83 -78.82L1238.84 97.82" stroke="hsl(336.9, 100%, 39.8%)" stroke-width="1.5"></path><path d="M1605.92 53.27L1605.92 53.27" stroke="hsl(336.9, 100%, 39.8%)" stroke-width="1.5"></path><path d="M1578.69 248.58L1578.69 248.58" stroke="hsl(336.9, 100%, 39.8%)" stroke-width="1.5"></path><path d="M1578.69 248.58L1563.85 401.64" stroke="hsl(336.9, 100%, 39.8%)" stroke-width="1.5"></path><path d="M1578.69 248.58L1605.92 53.27" stroke="hsl(336.9, 100%, 39.8%)" stroke-width="1.5"></path><path d="M1578.69 248.58L1576.83 510.85" stroke="hsl(336.9, 100%, 39.8%)" stroke-width="1.5"></path><path d="M1578.69 248.58L1297.43 230.66" stroke="hsl(336.9, 100%, 39.8%)" stroke-width="1.5"></path><path d="M1563.85 401.64L1563.85 401.64" stroke="hsl(336.9, 100%, 39.8%)" stroke-width="1.5"></path><path d="M1563.85 401.64L1576.83 510.85" stroke="hsl(336.9, 100%, 39.8%)" stroke-width="1.5"></path><path d="M1563.85 401.64L1421.26 526.64" stroke="hsl(336.9, 100%, 39.8%)" stroke-width="1.5"></path><path d="M1576.83 510.85L1576.83 510.85" stroke="hsl(336.9, 100%, 39.8%)" stroke-width="1.5"></path><path d="M1576.83 510.85L1437.5 343.23" stroke="hsl(336.9, 100%, 39.8%)" stroke-width="1.5"></path><path d="M1568.67 805.95L1568.67 805.95" stroke="hsl(336.9, 100%, 39.8%)" stroke-width="1.5"></path><path d="M1568.67 805.95L1447.48 648.34" stroke="hsl(336.9, 100%, 39.8%)" stroke-width="1.5"></path><circle r="25" cx="683.22" cy="509.2" fill="url(#SvgjsRadialGradient1001)"></circle><circle r="25" cx="638.89" cy="851.63" fill="url(#SvgjsRadialGradient1001)"></circle><circle r="25" cx="812.25" cy="536.25" fill="url(#SvgjsRadialGradient1001)"></circle><circle r="25" cx="1011.71" cy="401.5" fill="url(#SvgjsRadialGradient1001)"></circle><circle r="25" cx="1251.22" cy="343.26" fill="url(#SvgjsRadialGradient1001)"></circle><circle r="5" cx="-97.88" cy="676.19" fill="#ce809e"></circle><circle r="5" cx="-96.67" cy="860.55" fill="#ce809e"></circle><circle r="5" cx="51.5" cy="852.21" fill="#ce809e"></circle><circle r="5" cx="189.7" cy="552.53" fill="#ce809e"></circle><circle r="5" cx="198.3" cy="696.27" fill="#ce809e"></circle><circle r="5" cx="217.85" cy="825.54" fill="#ce809e"></circle><circle r="5" cx="373.89" cy="674.55" fill="#ce809e"></circle><circle r="5" cx="385.54" cy="825.88" fill="#ce809e"></circle><circle r="5" cx="554.47" cy="500.53" fill="#ce809e"></circle><circle r="5" cx="508.28" cy="676.77" fill="#ce809e"></circle><circle r="5" cx="529.31" cy="852.33" fill="#ce809e"></circle><circle r="5" cx="654.65" cy="651.62" fill="#ce809e"></circle><circle r="5" cx="846.53" cy="683.62" fill="#ce809e"></circle><circle r="5" cx="797.93" cy="806.32" fill="#ce809e"></circle><circle r="5" cx="967.22" cy="558.04" fill="#ce809e"></circle><circle r="5" cx="982.76" cy="681.67" fill="#ce809e"></circle><circle r="5" cx="953.86" cy="809.17" fill="#ce809e"></circle><circle r="5" cx="1160.18" cy="78.35" fill="#ce809e"></circle><circle r="5" cx="1109.44" cy="236.04" fill="#ce809e"></circle><circle r="5" cx="1124.14" cy="339.53" fill="#ce809e"></circle><circle r="5" cx="1109.44" cy="499.52" fill="#ce809e"></circle><circle r="5" cx="1130.35" cy="645.46" fill="#ce809e"></circle><circle r="5" cx="1113" cy="791.64" fill="#ce809e"></circle><circle r="5" cx="1293.34" cy="-107.91" fill="#ce809e"></circle><circle r="5" cx="1238.84" cy="97.82" fill="#ce809e"></circle><circle r="5" cx="1297.43" cy="230.66" fill="#ce809e"></circle><circle r="5" cx="1241.38" cy="522.25" fill="#ce809e"></circle><circle r="5" cx="1299.7" cy="639.76" fill="#ce809e"></circle><circle r="5" cx="1266.98" cy="843.37" fill="#ce809e"></circle><circle r="5" cx="1444.04" cy="-87.57" fill="#ce809e"></circle><circle r="5" cx="1390.11" cy="227.15" fill="#ce809e"></circle><circle r="5" cx="1437.5" cy="343.23" fill="#ce809e"></circle><circle r="5" cx="1421.26" cy="526.64" fill="#ce809e"></circle><circle r="5" cx="1447.48" cy="648.34" fill="#ce809e"></circle><circle r="5" cx="1436.29" cy="829.96" fill="#ce809e"></circle><circle r="5" cx="1576.83" cy="-78.82" fill="#ce809e"></circle><circle r="5" cx="1605.92" cy="53.27" fill="#ce809e"></circle><circle r="5" cx="1578.69" cy="248.58" fill="#ce809e"></circle><circle r="5" cx="1563.85" cy="401.64" fill="#ce809e"></circle><circle r="5" cx="1576.83" cy="510.85" fill="#ce809e"></circle><circle r="5" cx="1568.67" cy="805.95" fill="#ce809e"></circle></g><defs><mask id="SvgjsMask1000"><rect width="1440" height="700" fill="#ffffff"></rect></mask><radialGradient id="SvgjsRadialGradient1001"><stop stop-color="#ffffff" offset="0.1"></stop><stop stop-color="rgba(156, 0, 60, 1)" offset="0.2"></stop><stop stop-color="rgba(156, 0, 60, 0)" offset="1"></stop></radialGradient></defs></svg>