<?xml version="1.0" standalone="no"?><svg xmlns:xlink="http://www.w3.org/1999/xlink" xmlns="http://www.w3.org/2000/svg" viewBox="0 0 1000 599.9836007645166" preserveAspectRatio="xMaxYMax slice"><g transform="scale(1.9522899384833439)"><rect x="0" y="0" width="512.2216666666666" height="307.33299999999997" fill="#ffffff"/><rect x="5.122216666666667" y="5.122216666666667" width="40.977733333333326" height="40.977733333333326" fill="#ffffff"/><circle cx="35.855" cy="15.364999999999998" r="10.245" fill="#b23967"/><rect x="158.78871666666666" y="5.122216666666667" width="40.977733333333326" height="40.977733333333326" fill="#ffffff"/><g transform="translate(158.79,5.12) scale(1.0245) rotate(0)"><path fill-rule="evenodd" clip-rule="evenodd" d="M10 20C15.5228 20 20 15.5228 20 10C20 4.47715 15.5228 0 10 0C4.47715 0 0 4.47715 0 10C0 15.5228 4.47715 20 10 20ZM10 17C13.866 17 17 13.866 17 10C17 6.13401 13.866 3 10 3C6.13401 3 3 6.13401 3 10C3 13.866 6.13401 17 10 17Z" fill="#fdfbfc"/></g><circle cx="332.95" cy="25.61" r="20.49" fill="#f4e0e5"/><circle cx="384.17" cy="25.61" r="20.49" fill="#fcf8f9"/><g transform="translate(261.23,56.34) scale(2.049) rotate(0)"><path fill-rule="evenodd" clip-rule="evenodd" d="M10 20C15.5228 20 20 15.5228 20 10C20 4.47715 15.5228 0 10 0C4.47715 0 0 4.47715 0 10C0 15.5228 4.47715 20 10 20ZM10 17C13.866 17 17 13.866 17 10C17 6.13401 13.866 3 10 3C6.13401 3 3 6.13401 3 10C3 13.866 6.13401 17 10 17Z" fill="#ecccd5"/></g><circle cx="332.95" cy="76.83" r="20.49" fill="#b33c6a"/><circle cx="384.17" cy="76.83" r="20.49" fill="#fcf8fa"/><g transform="translate(414.9,56.34) scale(2.049) rotate(0)"><path fill-rule="evenodd" clip-rule="evenodd" d="M10 20C15.5228 20 20 15.5228 20 10C20 4.47715 15.5228 0 10 0C4.47715 0 0 4.47715 0 10C0 15.5228 4.47715 20 10 20ZM10 17C13.866 17 17 13.866 17 10C17 6.13401 13.866 3 10 3C6.13401 3 3 6.13401 3 10C3 13.866 6.13401 17 10 17Z" fill="#f3dee4"/></g><circle cx="486.61" cy="76.83" r="20.49" fill="#fcf8f9"/><circle cx="179.28" cy="128.06" r="20.49" fill="#f4e0e6"/><g transform="translate(312.46,107.57) scale(2.049) rotate(0)"><path fill-rule="evenodd" clip-rule="evenodd" d="M10 20C15.5228 20 20 15.5228 20 10C20 4.47715 15.5228 0 10 0C4.47715 0 0 4.47715 0 10C0 15.5228 4.47715 20 10 20ZM10 17C13.866 17 17 13.866 17 10C17 6.13401 13.866 3 10 3C6.13401 3 3 6.13401 3 10C3 13.866 6.13401 17 10 17Z" fill="#fdfafb"/></g><rect x="414.8995499999999" y="107.56654999999998" width="40.977733333333326" height="40.977733333333326" fill="#ffffff"/><circle cx="445.635" cy="117.815" r="10.245" fill="#fcf6f8"/><circle cx="486.61" cy="128.06" r="20.49" fill="#eac8d5"/><circle cx="230.5" cy="179.28" r="20.49" fill="#eac7d1"/><g transform="translate(261.23,158.79) scale(2.049) rotate(0)"><path fill-rule="evenodd" clip-rule="evenodd" d="M10 20C15.5228 20 20 15.5228 20 10C20 4.47715 15.5228 0 10 0C4.47715 0 0 4.47715 0 10C0 15.5228 4.47715 20 10 20ZM10 17C13.866 17 17 13.866 17 10C17 6.13401 13.866 3 10 3C6.13401 3 3 6.13401 3 10C3 13.866 6.13401 17 10 17Z" fill="#f0d6dd"/></g><g transform="translate(56.34,210.01) scale(2.049) rotate(0)"><path fill-rule="evenodd" clip-rule="evenodd" d="M10 20C15.5228 20 20 15.5228 20 10C20 4.47715 15.5228 0 10 0C4.47715 0 0 4.47715 0 10C0 15.5228 4.47715 20 10 20ZM10 17C13.866 17 17 13.866 17 10C17 6.13401 13.866 3 10 3C6.13401 3 3 6.13401 3 10C3 13.866 6.13401 17 10 17Z" fill="#ca7797"/></g><circle cx="128.06" cy="230.5" r="20.49" fill="#f0d5dc"/><g transform="translate(158.79,210.01) scale(2.049) rotate(0)"><path fill-rule="evenodd" clip-rule="evenodd" d="M10 20C15.5228 20 20 15.5228 20 10C20 4.47715 15.5228 0 10 0C4.47715 0 0 4.47715 0 10C0 15.5228 4.47715 20 10 20ZM10 17C13.866 17 17 13.866 17 10C17 6.13401 13.866 3 10 3C6.13401 3 3 6.13401 3 10C3 13.866 6.13401 17 10 17Z" fill="#e6bfce"/></g><circle cx="230.5" cy="230.5" r="20.49" fill="#f0d7e1"/><circle cx="332.95" cy="230.5" r="20.49" fill="#eac8d5"/><g transform="translate(414.9,210.01) scale(2.049) rotate(0)"><path fill-rule="evenodd" clip-rule="evenodd" d="M10 20C15.5228 20 20 15.5228 20 10C20 4.47715 15.5228 0 10 0C4.47715 0 0 4.47715 0 10C0 15.5228 4.47715 20 10 20ZM10 17C13.866 17 17 13.866 17 10C17 6.13401 13.866 3 10 3C6.13401 3 3 6.13401 3 10C3 13.866 6.13401 17 10 17Z" fill="#ca7797"/></g><rect x="466.1217166666666" y="210.0108833333333" width="40.977733333333326" height="40.977733333333326" fill="#ffffff"/><g transform="translate(466.12,210.01) scale(1.0245) rotate(0)"><path fill-rule="evenodd" clip-rule="evenodd" d="M10 20C15.5228 20 20 15.5228 20 10C20 4.47715 15.5228 0 10 0C4.47715 0 0 4.47715 0 10C0 15.5228 4.47715 20 10 20ZM10 17C13.866 17 17 13.866 17 10C17 6.13401 13.866 3 10 3C6.13401 3 3 6.13401 3 10C3 13.866 6.13401 17 10 17Z" fill="#fffefe"/></g><g transform="translate(486.61,230.5) scale(1.0245) rotate(0)"><path fill-rule="evenodd" clip-rule="evenodd" d="M10 20C15.5228 20 20 15.5228 20 10C20 4.47715 15.5228 0 10 0C4.47715 0 0 4.47715 0 10C0 15.5228 4.47715 20 10 20ZM10 17C13.866 17 17 13.866 17 10C17 6.13401 13.866 3 10 3C6.13401 3 3 6.13401 3 10C3 13.866 6.13401 17 10 17Z" fill="#f5e3e8"/></g><g transform="translate(158.79,261.23) scale(2.049) rotate(0)"><path fill-rule="evenodd" clip-rule="evenodd" d="M10 20C15.5228 20 20 15.5228 20 10C20 4.47715 15.5228 0 10 0C4.47715 0 0 4.47715 0 10C0 15.5228 4.47715 20 10 20ZM10 17C13.866 17 17 13.866 17 10C17 6.13401 13.866 3 10 3C6.13401 3 3 6.13401 3 10C3 13.866 6.13401 17 10 17Z" fill="#b23968"/></g><g transform="translate(210.01,261.23) scale(2.049) rotate(0)"><path fill-rule="evenodd" clip-rule="evenodd" d="M10 20C15.5228 20 20 15.5228 20 10C20 4.47715 15.5228 0 10 0C4.47715 0 0 4.47715 0 10C0 15.5228 4.47715 20 10 20ZM10 17C13.866 17 17 13.866 17 10C17 6.13401 13.866 3 10 3C6.13401 3 3 6.13401 3 10C3 13.866 6.13401 17 10 17Z" fill="#fbf4f6"/></g><g transform="translate(312.46,261.23) scale(2.049) rotate(0)"><path fill-rule="evenodd" clip-rule="evenodd" d="M10 20C15.5228 20 20 15.5228 20 10C20 4.47715 15.5228 0 10 0C4.47715 0 0 4.47715 0 10C0 15.5228 4.47715 20 10 20ZM10 17C13.866 17 17 13.866 17 10C17 6.13401 13.866 3 10 3C6.13401 3 3 6.13401 3 10C3 13.866 6.13401 17 10 17Z" fill="#ebccd8"/></g></g></svg>