<?xml version="1.0" standalone="no"?><svg xmlns:xlink="http://www.w3.org/1999/xlink" xmlns="http://www.w3.org/2000/svg" viewBox="0 0 1000 437.48976823176537" preserveAspectRatio="xMaxYMax slice"><g transform="scale(1.42355036307652)"><rect x="0" y="0" width="702.4754285714286" height="307.33299999999997" fill="#ffffff"/><path d="M 17.56 26.339999999999996 A 8.78 8.78 0 0 1  26.339999999999996 17.56 L 17.56 26.339999999999996 A 8.78 8.78 0 0 0 26.339999999999996 17.56" fill="#9c003c"/><rect x="149.27602857142858" y="17.561885714285715" width="8.780942857142854" height="8.780942857142854" fill="#ffffff"/><path d="M 149.28 21.95 A 4.39 4.39 0 0 1  153.67 26.34 L 149.28 21.95 A 4.39 4.39 0 0 0 153.67 26.34" fill="#9c003c"/><path d="M 153.67 26.34 A 4.39 4.39 0 0 1  158.05999999999997 21.95 L 153.67 26.34 A 4.39 4.39 0 0 0 158.05999999999997 21.95" fill="#9c003c"/><path d="M 500.51 17.56 A 8.78 8.78 0 0 1  509.28999999999996 26.339999999999996 L 500.51 17.56 A 8.78 8.78 0 0 0 509.28999999999996 26.339999999999996" fill="#eac6d0"/><path d="M 588.32 26.339999999999996 A 8.78 8.78 0 0 1  597.1 17.56 L 588.32 26.339999999999996 A 8.78 8.78 0 0 0 597.1 17.56" fill="#9c003c"/><path d="M 632.23 17.56 A 8.78 8.78 0 0 1  641.01 26.339999999999996 L 632.23 17.56 A 8.78 8.78 0 0 0 641.01 26.339999999999996" fill="#eac6d0"/><rect x="146.26541959183675" y="58.45599102040816" width="14.802160816326527" height="14.802160816326527" fill="#ffffff"/><path d="M 146.27 65.86 A 7.4 7.4 0 0 1  153.67000000000002 58.46 L 146.27 65.86 A 7.4 7.4 0 0 0 153.67000000000002 58.46" fill="#eac6d0"/><path d="M 146.27 73.26 A 7.4 7.4 0 0 1  153.67000000000002 65.86 L 146.27 73.26 A 7.4 7.4 0 0 0 153.67000000000002 65.86" fill="#eac6d0"/><path d="M 409.69 73.26 A 14.8 14.8 0 0 1  424.49 58.46 L 409.69 73.26 A 14.8 14.8 0 0 0 424.49 58.46" fill="#eac6d0"/><path d="M 673.12 58.46 A 14.8 14.8 0 0 1  687.92 73.26 L 673.12 58.46 A 14.8 14.8 0 0 0 687.92 73.26" fill="#eac6d0"/><path d="M 11.54 120.16999999999999 A 20.82 20.82 0 0 1  32.36 99.35 L 11.54 120.16999999999999 A 20.82 20.82 0 0 0 32.36 99.35" fill="#eac6d0"/><path d="M 55.45 120.16999999999999 A 20.82 20.82 0 0 1  76.27000000000001 99.35 L 55.45 120.16999999999999 A 20.82 20.82 0 0 0 76.27000000000001 99.35" fill="#eac6d0"/><path d="M 274.97 120.16999999999999 A 20.82 20.82 0 0 1  295.79 99.35 L 274.97 120.16999999999999 A 20.82 20.82 0 0 0 295.79 99.35" fill="#eac6d0"/><path d="M 538.4 120.16999999999999 A 20.82 20.82 0 0 1  559.22 99.35 L 538.4 120.16999999999999 A 20.82 20.82 0 0 0 559.22 99.35" fill="#eac6d0"/><path d="M 582.3 99.35 A 20.82 20.82 0 0 1  603.12 120.16999999999999 L 582.3 99.35 A 20.82 20.82 0 0 0 603.12 120.16999999999999" fill="#9c003c"/><path d="M 140.24 140.24 A 26.84 26.84 0 0 1  167.08 167.08 L 140.24 140.24 A 26.84 26.84 0 0 0 167.08 167.08" fill="#eac6d0"/><path d="M 184.15 167.08 A 26.84 26.84 0 0 1  210.99 140.24 L 184.15 167.08 A 26.84 26.84 0 0 0 210.99 140.24" fill="#9c003c"/><path d="M 228.05 140.24 A 26.84 26.84 0 0 1  254.89000000000001 167.08 L 228.05 140.24 A 26.84 26.84 0 0 0 254.89000000000001 167.08" fill="#eac6d0"/><path d="M 359.77 140.24 A 26.84 26.84 0 0 1  386.60999999999996 167.08 L 359.77 140.24 A 26.84 26.84 0 0 0 386.60999999999996 167.08" fill="#eac6d0"/><path d="M 491.48 167.08 A 26.84 26.84 0 0 1  518.32 140.24 L 491.48 167.08 A 26.84 26.84 0 0 0 518.32 140.24" fill="#eac6d0"/><path d="M 535.39 140.24 A 26.84 26.84 0 0 1  562.23 167.08 L 535.39 140.24 A 26.84 26.84 0 0 0 562.23 167.08" fill="#eac6d0"/><rect x="623.1960587755101" y="140.24420163265307" width="26.844596734693877" height="26.844596734693877" fill="#ffffff"/><path d="M 636.62 153.66 A 13.42 13.42 0 0 1  650.04 140.24 L 636.62 153.66 A 13.42 13.42 0 0 0 650.04 140.24" fill="#9c003c"/><path d="M 623.2 153.67 A 13.42 13.42 0 0 1  636.62 167.08999999999997 L 623.2 153.67 A 13.42 13.42 0 0 0 636.62 167.08999999999997" fill="#9c003c"/><path d="M 667.1 140.24 A 26.84 26.84 0 0 1  693.94 167.08 L 667.1 140.24 A 26.84 26.84 0 0 0 693.94 167.08" fill="#9c003c"/><path d="M 181.14 214.01 A 32.87 32.87 0 0 1  214.01 181.14 L 181.14 214.01 A 32.87 32.87 0 0 0 214.01 181.14" fill="#eac6d0"/><path d="M 225.04 214.01 A 32.87 32.87 0 0 1  257.90999999999997 181.14 L 225.04 214.01 A 32.87 32.87 0 0 0 257.90999999999997 181.14" fill="#9c003c"/><rect x="356.75716408163265" y="181.13830693877551" width="32.865814693877546" height="32.865814693877546" fill="#ffffff"/><path d="M 356.76 214 A 16.43 16.43 0 0 1  373.19 197.57 L 356.76 214 A 16.43 16.43 0 0 0 373.19 197.57" fill="#eac6d0"/><path d="M 532.38 214.01 A 32.87 32.87 0 0 1  565.25 181.14 L 532.38 214.01 A 32.87 32.87 0 0 0 565.25 181.14" fill="#eac6d0"/><rect x="664.0901640816327" y="181.13830693877551" width="32.865814693877546" height="32.865814693877546" fill="#ffffff"/><path d="M 664.09 197.57 A 16.43 16.43 0 0 1  680.52 214 L 664.09 197.57 A 16.43 16.43 0 0 0 680.52 214" fill="#9c003c"/><path d="M 90.32 222.03 A 38.89 38.89 0 0 1  129.20999999999998 260.92 L 90.32 222.03 A 38.89 38.89 0 0 0 129.20999999999998 260.92" fill="#eac6d0"/><path d="M 178.13 222.03 A 38.89 38.89 0 0 1  217.01999999999998 260.92 L 178.13 222.03 A 38.89 38.89 0 0 0 217.01999999999998 260.92" fill="#9c003c"/><path d="M 309.84 260.92 A 38.89 38.89 0 0 1  348.72999999999996 222.03 L 309.84 260.92 A 38.89 38.89 0 0 0 348.72999999999996 222.03" fill="#9c003c"/><rect x="353.7465551020408" y="222.03241224489796" width="38.88703265306122" height="38.88703265306122" fill="#ffffff"/><path d="M 529.37 260.92 A 38.89 38.89 0 0 1  568.26 222.03 L 529.37 260.92 A 38.89 38.89 0 0 0 568.26 222.03" fill="#9c003c"/><rect x="573.2701265306122" y="222.03241224489796" width="38.88703265306122" height="38.88703265306122" fill="#ffffff"/><path d="M 592.71 260.92 A 19.44 19.44 0 0 1  612.1500000000001 241.48 L 592.71 260.92 A 19.44 19.44 0 0 0 612.1500000000001 241.48" fill="#eac6d0"/><path d="M 617.17 260.92 A 38.89 38.89 0 0 1  656.06 222.03 L 617.17 260.92 A 38.89 38.89 0 0 0 656.06 222.03" fill="#9c003c"/><rect x="395.1424285714286" y="263.4282857142857" width="43.904714285714284" height="43.904714285714284" fill="#ffffff"/><path d="M 614.67 307.33 A 43.9 43.9 0 0 1  658.5699999999999 263.43 L 614.67 307.33 A 43.9 43.9 0 0 0 658.5699999999999 263.43" fill="#9c003c"/></g></svg>