<svg xmlns="http://www.w3.org/2000/svg" version="1.1" xmlns:xlink="http://www.w3.org/1999/xlink" xmlns:svgjs="http://svgjs.com/svgjs" width="1440" height="700" preserveAspectRatio="none" viewBox="0 0 1440 700"><g mask="url(&quot;#SvgjsMask1384&quot;)" fill="none"><rect width="1440" height="700" x="0" y="0" fill="rgba(255, 255, 255, 1)"></rect><g transform="translate(0, 0)" stroke-linecap="round"><path d="M330 174.885 L330 321.135" stroke-width="29.25" stroke="rgba(156, 0, 60, 1)"></path><path d="M330 365.01 L330 394.26" stroke-width="29.25" stroke="rgba(195, 99, 134, 1)"></path><path d="M330 438.135 L330 525.115" stroke-width="29.25" stroke="rgba(234, 198, 208, 1)"></path><path d="M369 310.965 L369 389.035" stroke-width="29.25" stroke="rgba(195, 99, 134, 1)"></path><path d="M408 314.835 L408 385.165" stroke-width="29.25" stroke="rgba(195, 99, 134, 1)"></path><path d="M447 326.545 L447 373.455" stroke-width="29.25" stroke="rgba(195, 99, 134, 1)"></path><path d="M486 227.905 L486 286.405" stroke-width="29.25" stroke="rgba(195, 99, 134, 1)"></path><path d="M486 330.28 L486 472.095" stroke-width="29.25" stroke="rgba(195, 99, 134, 1)"></path><path d="M525 214.815 L525 273.315" stroke-width="29.25" stroke="rgba(156, 0, 60, 1)"></path><path d="M525 317.19 L525 485.185" stroke-width="29.25" stroke="rgba(195, 99, 134, 1)"></path><path d="M564 205.155 L564 234.405" stroke-width="29.25" stroke="rgba(195, 99, 134, 1)"></path><path d="M564 278.28 L564 336.78" stroke-width="29.25" stroke="rgba(156, 0, 60, 1)"></path><path d="M564 380.655 L564 494.855" stroke-width="29.25" stroke="rgba(156, 0, 60, 1)"></path><path d="M603 248.045 L603 277.29499999999996" stroke-width="29.25" stroke="rgba(234, 198, 208, 1)"></path><path d="M603 321.16999999999996 L603 350.41999999999996" stroke-width="29.25" stroke="rgba(234, 198, 208, 1)"></path><path d="M603 394.29499999999996 L603 451.955" stroke-width="29.25" stroke="rgba(156, 0, 60, 1)"></path><path d="M642 295.285 L642 404.715" stroke-width="29.25" stroke="rgba(156, 0, 60, 1)"></path><path d="M681 249.495 L681 450.505" stroke-width="29.25" stroke="rgba(156, 0, 60, 1)"></path><path d="M720 263.45500000000004 L720 321.95500000000004" stroke-width="29.25" stroke="rgba(195, 99, 134, 1)"></path><path d="M720 365.83000000000004 L720 436.545" stroke-width="29.25" stroke="rgba(156, 0, 60, 1)"></path><path d="M759 311.005 L759 389.005" stroke-width="29.25" stroke="rgba(195, 99, 134, 1)"></path><path d="M798 225.135 L798 283.635" stroke-width="29.25" stroke="rgba(195, 99, 134, 1)"></path><path d="M798 327.51 L798 356.76" stroke-width="29.25" stroke="rgba(156, 0, 60, 1)"></path><path d="M798 400.635 L798 474.865" stroke-width="29.25" stroke="rgba(234, 198, 208, 1)"></path><path d="M837 327.845 L837 372.155" stroke-width="29.25" stroke="rgba(234, 198, 208, 1)"></path><path d="M876 221.935 L876 368.185" stroke-width="29.25" stroke="rgba(234, 198, 208, 1)"></path><path d="M876 412.06 L876 478.065" stroke-width="29.25" stroke="rgba(195, 99, 134, 1)"></path><path d="M915 209.755 L915 326.755" stroke-width="29.25" stroke="rgba(195, 99, 134, 1)"></path><path d="M915 370.63 L915 399.88" stroke-width="29.25" stroke="rgba(234, 198, 208, 1)"></path><path d="M915 443.755 L915 490.255" stroke-width="29.25" stroke="rgba(234, 198, 208, 1)"></path><path d="M954 223.635 L954 311.385" stroke-width="29.25" stroke="rgba(156, 0, 60, 1)"></path><path d="M954 355.26 L954 384.51" stroke-width="29.25" stroke="rgba(195, 99, 134, 1)"></path><path d="M954 428.385 L954 476.365" stroke-width="29.25" stroke="rgba(156, 0, 60, 1)"></path><path d="M993 216.775 L993 333.775" stroke-width="29.25" stroke="rgba(195, 99, 134, 1)"></path><path d="M993 377.65 L993 483.235" stroke-width="29.25" stroke="rgba(156, 0, 60, 1)"></path><path d="M1032 336.645 L1032 363.355" stroke-width="29.25" stroke="rgba(195, 99, 134, 1)"></path><path d="M1071 312.845 L1071 387.155" stroke-width="29.25" stroke="rgba(195, 99, 134, 1)"></path><path d="M1110 175.345 L1110 321.595" stroke-width="29.25" stroke="rgba(156, 0, 60, 1)"></path><path d="M1110 365.47 L1110 423.97" stroke-width="29.25" stroke="rgba(234, 198, 208, 1)"></path><path d="M1110 467.845 L1110 524.645" stroke-width="29.25" stroke="rgba(156, 0, 60, 1)"></path></g></g><defs><mask id="SvgjsMask1384"><rect width="1440" height="700" fill="#ffffff"></rect></mask></defs></svg>