<svg id="visual" viewBox="0 0 900 600" width="900" height="600" xmlns="http://www.w3.org/2000/svg" xmlns:xlink="http://www.w3.org/1999/xlink" version="1.1"><rect x="0" y="0" width="900" height="600" fill="#ffffff"></rect><defs><linearGradient id="grad1_0" x1="33.3%" y1="0%" x2="100%" y2="100%"><stop offset="20%" stop-color="#9c003c" stop-opacity="1"></stop><stop offset="80%" stop-color="#9c003c" stop-opacity="1"></stop></linearGradient></defs><defs><linearGradient id="grad1_1" x1="33.3%" y1="0%" x2="100%" y2="100%"><stop offset="20%" stop-color="#9c003c" stop-opacity="1"></stop><stop offset="80%" stop-color="#c56877" stop-opacity="1"></stop></linearGradient></defs><defs><linearGradient id="grad1_2" x1="33.3%" y1="0%" x2="100%" y2="100%"><stop offset="20%" stop-color="#e6b3b9" stop-opacity="1"></stop><stop offset="80%" stop-color="#c56877" stop-opacity="1"></stop></linearGradient></defs><defs><linearGradient id="grad1_3" x1="33.3%" y1="0%" x2="100%" y2="100%"><stop offset="20%" stop-color="#e6b3b9" stop-opacity="1"></stop><stop offset="80%" stop-color="#ffffff" stop-opacity="1"></stop></linearGradient></defs><defs><linearGradient id="grad2_0" x1="0%" y1="0%" x2="66.7%" y2="100%"><stop offset="20%" stop-color="#9c003c" stop-opacity="1"></stop><stop offset="80%" stop-color="#9c003c" stop-opacity="1"></stop></linearGradient></defs><defs><linearGradient id="grad2_1" x1="0%" y1="0%" x2="66.7%" y2="100%"><stop offset="20%" stop-color="#c56877" stop-opacity="1"></stop><stop offset="80%" stop-color="#9c003c" stop-opacity="1"></stop></linearGradient></defs><defs><linearGradient id="grad2_2" x1="0%" y1="0%" x2="66.7%" y2="100%"><stop offset="20%" stop-color="#c56877" stop-opacity="1"></stop><stop offset="80%" stop-color="#e6b3b9" stop-opacity="1"></stop></linearGradient></defs><defs><linearGradient id="grad2_3" x1="0%" y1="0%" x2="66.7%" y2="100%"><stop offset="20%" stop-color="#ffffff" stop-opacity="1"></stop><stop offset="80%" stop-color="#e6b3b9" stop-opacity="1"></stop></linearGradient></defs><g transform="translate(900, 0)"><path d="M0 513.8C-100.6 506.6 -201.2 499.3 -256.9 445C-312.5 390.6 -323.2 289 -358.5 207C-393.9 125 -453.8 62.5 -513.8 0L0 0Z" fill="#f3d9db"></path><path d="M0 385.3C-75.5 379.9 -150.9 374.5 -192.7 333.7C-234.4 292.9 -242.4 216.8 -268.9 155.3C-295.4 93.7 -340.4 46.9 -385.3 0L0 0Z" fill="#d68e97"></path><path d="M0 256.9C-50.3 253.3 -100.6 249.7 -128.4 222.5C-156.3 195.3 -161.6 144.5 -179.3 103.5C-196.9 62.5 -226.9 31.2 -256.9 0L0 0Z" fill="#b14059"></path><path d="M0 128.4C-25.2 126.6 -50.3 124.8 -64.2 111.2C-78.1 97.6 -80.8 72.3 -89.6 51.8C-98.5 31.2 -113.5 15.6 -128.4 0L0 0Z" fill="#9c003c"></path></g><g transform="translate(0, 600)"><path d="M0 -513.8C90.5 -500.7 180.9 -487.6 256.9 -445C332.9 -402.3 394.3 -330.1 434.7 -251C475.1 -171.9 494.5 -86 513.8 0L0 0Z" fill="#f3d9db"></path><path d="M0 -385.3C67.8 -375.5 135.7 -365.7 192.7 -333.7C249.6 -301.7 295.8 -247.6 326.1 -188.3C356.4 -128.9 370.9 -64.5 385.3 0L0 0Z" fill="#d68e97"></path><path d="M0 -256.9C45.2 -250.4 90.5 -243.8 128.4 -222.5C166.4 -201.2 197.2 -165 217.4 -125.5C237.6 -86 247.2 -43 256.9 0L0 0Z" fill="#b14059"></path><path d="M0 -128.4C22.6 -125.2 45.2 -121.9 64.2 -111.2C83.2 -100.6 98.6 -82.5 108.7 -62.8C118.8 -43 123.6 -21.5 128.4 0L0 0Z" fill="#9c003c"></path></g></svg>