<?xml version="1.0" standalone="no"?><svg xmlns:xlink="http://www.w3.org/1999/xlink" xmlns="http://www.w3.org/2000/svg" viewBox="0 0 1000 368.40975895121966" preserveAspectRatio="xMaxYMax slice"><g transform="scale(1.198770540933219)"><rect x="0" y="0" width="834.1895714285714" height="307.33299999999997" fill="#ffffff"/><g transform="translate(0,0) scale(2.195) rotate(0)"><path d="M10 0L20 10L10 20L0 10L10 0Z" fill="#ffffff"/></g><g transform="translate(43.9,0) scale(2.195) rotate(0)"><path d="M10 0L20 10L10 20L0 10L10 0Z" fill="#f0d5dd"/></g><rect x="131.71414285714286" y="0" width="43.904714285714284" height="43.904714285714284" fill="#ffffff"/><g transform="translate(131.71,0) scale(1.0975) rotate(0)"><path d="M10 0L20 10L10 20L0 10L10 0Z" fill="#f8ecf1"/></g><g transform="translate(131.71,21.95) scale(1.0975) rotate(0)"><path d="M10 0L20 10L10 20L0 10L10 0Z" fill="#a10d46"/></g><rect x="175.61885714285714" y="0" width="43.904714285714284" height="43.904714285714284" fill="#ffffff"/><g transform="translate(197.57,0) scale(1.0975) rotate(0)"><path d="M10 0L20 10L10 20L0 10L10 0Z" fill="#f1d8df"/></g><polygon points="197.57,21.95 197.57,43.9 175.62,43.9" fill="#ebc8d2"/><g transform="translate(219.52,0) scale(2.195) rotate(0)"><path d="M10 0L20 10L10 20L0 10L10 0Z" fill="#dea9bd"/></g><rect x="263.4282857142857" y="0" width="43.904714285714284" height="43.904714285714284" fill="#ffffff"/><rect x="351.2377142857143" y="0" width="43.904714285714284" height="43.904714285714284" fill="#ffffff"/><g transform="translate(439.05,0) scale(2.195) rotate(0)"><path d="M10 0L20 10L10 20L0 10L10 0Z" fill="#fefcfd"/></g><g transform="translate(614.67,0) scale(2.195) rotate(0)"><path d="M10 0L20 10L10 20L0 10L10 0Z" fill="#e4baca"/></g><g transform="translate(702.48,0) scale(2.195) rotate(0)"><path d="M10 0L20 10L10 20L0 10L10 0Z" fill="#b94b75"/></g><rect x="746.3801428571428" y="0" width="43.904714285714284" height="43.904714285714284" fill="#ffffff"/><polygon points="790.2800000000001,0 790.2800000000001,21.95 768.33,21.95" fill="#f9eff2"/><polygon points="790.28,0 834.18,0 790.28,43.9" fill="#c66b8e"/><polygon points="0,43.9 43.9,87.8 0,87.8" fill="#c76e90"/><polygon points="87.8,43.9 87.8,87.8 43.9,87.8" fill="#9f0741"/><rect x="87.80942857142857" y="43.904714285714284" width="43.904714285714284" height="43.904714285714284" fill="#ffffff"/><g transform="translate(109.76,43.9) scale(1.0975) rotate(0)"><path d="M10 0L20 10L10 20L0 10L10 0Z" fill="#f0d5dc"/></g><polygon points="109.76,65.86 131.71,87.81 109.76,87.81" fill="#c76f91"/><g transform="translate(351.24,43.9) scale(2.195) rotate(0)"><path d="M10 0L20 10L10 20L0 10L10 0Z" fill="#ce809e"/></g><rect x="746.3801428571428" y="43.904714285714284" width="43.904714285714284" height="43.904714285714284" fill="#ffffff"/><polygon points="746.38,65.86 768.33,65.86 746.38,87.81" fill="#fcf7f8"/><g transform="translate(768.33,65.86) scale(1.0975) rotate(0)"><path d="M10 0L20 10L10 20L0 10L10 0Z" fill="#c66c8f"/></g><g transform="translate(43.9,87.81) scale(2.195) rotate(0)"><path d="M10 0L20 10L10 20L0 10L10 0Z" fill="#f6e7eb"/></g><g transform="translate(307.33,87.81) scale(2.195) rotate(0)"><path d="M10 0L20 10L10 20L0 10L10 0Z" fill="#be587f"/></g><rect x="351.2377142857143" y="87.80942857142857" width="43.904714285714284" height="43.904714285714284" fill="#ffffff"/><polygon points="373.19,109.76 373.19,131.71 351.24,131.71" fill="#f8edf0"/><polygon points="395.14,87.81 439.03999999999996,131.71 395.14,131.71" fill="#f2dce2"/><rect x="439.04714285714283" y="87.80942857142857" width="43.904714285714284" height="43.904714285714284" fill="#ffffff"/><polygon points="439.05,109.76 461,109.76 461,131.71" fill="#f2dde3"/><g transform="translate(461,109.76) scale(1.0975) rotate(0)"><path d="M10 0L20 10L10 20L0 10L10 0Z" fill="#eed2da"/></g><g transform="translate(526.86,87.81) scale(2.195) rotate(0)"><path d="M10 0L20 10L10 20L0 10L10 0Z" fill="#ebc8d1"/></g><g transform="translate(790.28,87.81) scale(2.195) rotate(0)"><path d="M10 0L20 10L10 20L0 10L10 0Z" fill="#af3262"/></g><g transform="translate(0,131.71) scale(2.195) rotate(0)"><path d="M10 0L20 10L10 20L0 10L10 0Z" fill="#f2dde5"/></g><g transform="translate(43.9,131.71) scale(2.195) rotate(0)"><path d="M10 0L20 10L10 20L0 10L10 0Z" fill="#edced7"/></g><polygon points="131.71,131.71 175.61,175.61 131.71,175.61" fill="#f2dde3"/><rect x="263.4282857142857" y="131.71414285714286" width="43.904714285714284" height="43.904714285714284" fill="#ffffff"/><polygon points="285.38,131.71 307.33,131.71 285.38,153.66" fill="#ffffff"/><polygon points="263.43,153.67 285.38,153.67 263.43,175.61999999999998" fill="#edcfdb"/><g transform="translate(285.38,153.67) scale(1.0975) rotate(0)"><path d="M10 0L20 10L10 20L0 10L10 0Z" fill="#efd7e0"/></g><g transform="translate(439.05,131.71) scale(2.195) rotate(0)"><path d="M10 0L20 10L10 20L0 10L10 0Z" fill="#f7e9ed"/></g><rect x="570.7612857142857" y="131.71414285714286" width="43.904714285714284" height="43.904714285714284" fill="#ffffff"/><polygon points="570.76,131.71 592.71,153.66 570.76,153.66" fill="#a81f53"/><polygon points="592.71,153.67 614.6600000000001,175.61999999999998 592.71,175.61999999999998" fill="#d694ad"/><polygon points="790.28,131.71 790.28,175.61 746.38,175.61" fill="#dfadc0"/><rect x="43.904714285714284" y="175.61885714285714" width="43.904714285714284" height="43.904714285714284" fill="#ffffff"/><g transform="translate(43.9,197.57) scale(1.0975) rotate(0)"><path d="M10 0L20 10L10 20L0 10L10 0Z" fill="#ecccd5"/></g><g transform="translate(131.71,175.62) scale(2.195) rotate(0)"><path d="M10 0L20 10L10 20L0 10L10 0Z" fill="#e2b4c6"/></g><rect x="175.61885714285714" y="175.61885714285714" width="43.904714285714284" height="43.904714285714284" fill="#ffffff"/><g transform="translate(175.62,175.62) scale(1.0975) rotate(0)"><path d="M10 0L20 10L10 20L0 10L10 0Z" fill="#a31149"/></g><g transform="translate(197.57,175.62) scale(1.0975) rotate(0)"><path d="M10 0L20 10L10 20L0 10L10 0Z" fill="#f9f0f3"/></g><polygon points="175.62,197.57 197.57,197.57 197.57,219.51999999999998" fill="#fbf3f5"/><rect x="219.52357142857142" y="175.61885714285714" width="43.904714285714284" height="43.904714285714284" fill="#ffffff"/><g transform="translate(241.48,175.62) scale(1.0975) rotate(0)"><path d="M10 0L20 10L10 20L0 10L10 0Z" fill="#f1d8df"/></g><g transform="translate(263.43,175.62) scale(2.195) rotate(0)"><path d="M10 0L20 10L10 20L0 10L10 0Z" fill="#f8edf0"/></g><g transform="translate(482.95,175.62) scale(2.195) rotate(0)"><path d="M10 0L20 10L10 20L0 10L10 0Z" fill="#f6e9ee"/></g><g transform="translate(746.38,175.62) scale(2.195) rotate(0)"><path d="M10 0L20 10L10 20L0 10L10 0Z" fill="#fdfafb"/></g><g transform="translate(0,219.52) scale(2.195) rotate(0)"><path d="M10 0L20 10L10 20L0 10L10 0Z" fill="#af3061"/></g><g transform="translate(526.86,219.52) scale(2.195) rotate(0)"><path d="M10 0L20 10L10 20L0 10L10 0Z" fill="#f5e3e8"/></g><g transform="translate(702.48,219.52) scale(2.195) rotate(0)"><path d="M10 0L20 10L10 20L0 10L10 0Z" fill="#f4e1e6"/></g><rect x="131.71414285714286" y="263.4282857142857" width="43.904714285714284" height="43.904714285714284" fill="#ffffff"/><g transform="translate(219.52,263.43) scale(2.195) rotate(0)"><path d="M10 0L20 10L10 20L0 10L10 0Z" fill="#f2dde3"/></g><polygon points="307.33,263.43 307.33,307.33 263.43,307.33" fill="#dba3b9"/><rect x="746.3801428571428" y="263.4282857142857" width="43.904714285714284" height="43.904714285714284" fill="#ffffff"/><rect x="790.2848571428572" y="263.4282857142857" width="43.904714285714284" height="43.904714285714284" fill="#ffffff"/><polygon points="790.28,285.38 812.23,285.38 790.28,307.33" fill="#edced7"/><g transform="translate(812.24,285.38) scale(1.0975) rotate(0)"><path d="M10 0L20 10L10 20L0 10L10 0Z" fill="#c97394"/></g></g></svg>